<?xml version="1.0" encoding="utf-8"?>
<!-- Generator: Adobe Illustrator 27.5.0, SVG Export Plug-In . SVG Version: 6.00 Build 0)  -->
<svg version="1.1" xmlns="http://www.w3.org/2000/svg" xmlns:xlink="http://www.w3.org/1999/xlink" x="0px" y="0px"
	 viewBox="0 0 500 500" style="enable-background:new 0 0 500 500;" xml:space="preserve">
<g id="BACKGROUND">
	<rect y="0" style="fill:#FFFFFF;" width="500" height="500"/>
</g>
<g id="OBJECTS">
	<g>
		
			<ellipse transform="matrix(0.7071 -0.7071 0.7071 0.7071 -43.363 96.7958)" style="fill:#EA6868;" cx="95.161" cy="100.742" rx="68.83" ry="68.83"/>
		
			<ellipse transform="matrix(0.2238 -0.9746 0.9746 0.2238 -24.3231 170.9417)" style="fill:#F6E1DA;" cx="95.161" cy="100.742" rx="61.86" ry="61.86"/>
		<g>
			<defs>
				
					<ellipse id="SVGID_1_" transform="matrix(0.2238 -0.9746 0.9746 0.2238 -24.3231 170.9417)" cx="95.161" cy="100.742" rx="61.86" ry="61.86"/>
			</defs>
			<clipPath id="SVGID_00000011020241948128773390000002721691591305429385_">
				<use xlink:href="#SVGID_1_"  style="overflow:visible;"/>
			</clipPath>
			<g style="clip-path:url(#SVGID_00000011020241948128773390000002721691591305429385_);">
				<ellipse style="fill:#E06EA1;" cx="96.242" cy="179.176" rx="50.07" ry="38.805"/>
				<g>
					<path style="fill:#2C3C52;" d="M54.771,115.723c6.909,18.198,30.157,26.25,51.926,17.985
						c21.769-8.265,35.018-26.549,28.109-44.746c-6.909-18.198-30.157-26.25-51.926-17.985
						C61.112,79.241,47.863,97.525,54.771,115.723z"/>
					<path style="fill:#8D7472;" d="M108.857,133.7l-3.068,11.268c0,0-9.445,4.667-19.298,0l-2.863-7.33L108.857,133.7z"/>
					<path style="fill:#816169;" d="M85.007,141.171l-1.381-3.534l24.728-2.597l-2.179,8.535
						C98.846,144.533,91.73,143.536,85.007,141.171z"/>
					<path style="fill:#8D7472;" d="M57.366,115.64c7.219,19.014,29.457,28.208,49.671,20.533s32.004-26,24.785-45.014
						c-7.219-19.015-29.458-28.208-49.671-20.533S50.147,96.626,57.366,115.64z"/>
					<path style="fill:#2C3C52;" d="M114.017,62.486c0,0,11.118,24.171,17.521,29.607c0.511,0.434,1.881-1.51,2.353-1.574
						c1.568-0.213,2.529-1.823,2.041-3.327c-11.499-35.462-41.725-27.397-46.302-25.948c-0.4,0.127-0.818,0.143-1.231,0.07
						c-9.526-1.692-34.538,3.207-38.71,13.871c-5.664,14.48,0.037,22.764,4.153,33.586c0,0,18.017-10.803,23.247-36.757"/>
					<path style="fill:#2C3C52;" d="M73.993,81.187c14.689-5.176,26.983,5.964,41.725,2.004
						c14.741-3.96,23.755-16.539,18.079-26.788c-5.256-9.491-13.94-3.586-13.94-3.586c1.964-5.645-5.218-12.699-11.962-6.669
						c0,0-1.749-8.104-11.6-4.94c-9.851,3.163-10.152,17.853-12.268,17.595c-12.104-1.48-16.606,4.703-16.606,4.703
						S47.17,63.41,47.592,81.783C47.998,99.483,65.555,84.16,73.993,81.187z"/>
					<path style="fill:#2C3C52;" d="M109.917,85.111c0,0,11.172,2.809,10.392,6.507c-0.78,3.697-15.417,0.159-17.586-2.236
						C100.554,86.987,103.936,82.624,109.917,85.111z"/>
					<path style="fill:#2C3C52;" d="M75.335,91.191c0,0-9.657,6.28-7.72,9.525c1.937,3.245,14.636-4.849,15.91-7.818
						C84.8,89.929,80.187,86.899,75.335,91.191z"/>
					<path style="fill:#FFFFFF;" d="M100.823,104.388c1.508,4.72,6.557,7.323,11.277,5.814c4.72-1.509,7.323-6.557,5.814-11.277
						c-1.508-4.72-6.557-7.323-11.277-5.814C101.918,94.619,99.315,99.668,100.823,104.388z"/>
					<path style="fill:#2C3C52;" d="M103.646,100.428c-0.913,5.921,5.749,9.356,10.042,5.177c0.747-0.727,1.244-1.691,1.403-2.722
						c0.913-5.921-5.749-9.355-10.042-5.176C104.302,98.434,103.805,99.398,103.646,100.428z"/>
					<path style="fill:#816169;" d="M106.664,113.686c0.755,1.988,4.573,2.993,8.277,1.587c3.705-1.406,5.291-4.158,4.536-6.146
						c-0.755-1.988-3.767-2.994-7.472-1.588C108.301,108.946,105.909,111.698,106.664,113.686z"/>
					<path style="fill:#FFFFFF;" d="M89.198,106.745c0.449,4.935-3.187,9.299-8.122,9.748c-4.935,0.449-9.299-3.187-9.748-8.122
						c-0.449-4.935,3.187-9.299,8.122-9.747C84.385,98.174,88.749,101.81,89.198,106.745z"/>
					<path style="fill:#2C3C52;" d="M85.055,104.198c3.147,5.098-1.651,10.856-7.233,8.679c-0.971-0.379-1.804-1.073-2.352-1.96
						c-3.147-5.097,1.651-10.855,7.233-8.679C83.674,102.617,84.508,103.311,85.055,104.198z"/>
					<path style="fill:#816169;" d="M87.44,117.584c0.079,2.125-3.046,4.538-7.006,4.686c-3.96,0.147-6.492-1.769-6.572-3.894
						c-0.079-2.125,2.304-4.225,6.264-4.373C84.086,113.855,87.361,115.459,87.44,117.584z"/>
					<path style="fill:#8D7472;" d="M130.744,93.295c0,0,3.597-6.007,9.662-3.668c6.065,2.338,7.503,13.127,1.358,15.74
						c-6.145,2.613-10.79-3.336-10.79-3.336L130.744,93.295z"/>
					<path style="fill:#816169;" d="M134.826,94.847c0,0,2.516-3.42,5.855-2.133c3.339,1.287,4.13,7.226,0.747,8.664
						c-3.382,1.438-5.939-1.837-5.939-1.837L134.826,94.847z"/>
					<path style="fill:#8D7472;" d="M58.224,107.736c0,0-5.641-4.146-10.329,0.358c-4.687,4.504-1.836,15.008,4.841,15.039
						c6.677,0.03,8.657-7.253,8.657-7.253L58.224,107.736z"/>
					<path style="fill:#816169;" d="M56.078,110.808c0,0-3.095-2.275-5.667,0.196c-2.572,2.472-1.007,8.235,2.656,8.252
						s4.75-3.98,4.75-3.98L56.078,110.808z"/>
					<path style="fill:#2C3C52;" d="M88.697,109.489c5.356-2.604,12.971-2.411,12.971-2.411s0.362,1.956-0.093,4.081
						c-4.164-0.734-8.573-0.149-11.987,1.895C88.758,111.287,88.697,109.489,88.697,109.489z"/>
					<path style="fill:#EA6868;" d="M101.576,111.159c-0.463,2.16-1.77,4.495-5.168,5.127c-3.948,0.734-5.878-1.23-6.819-3.232
						C93.003,111.009,97.411,110.425,101.576,111.159z"/>
				</g>
			</g>
		</g>
		<g>
			<path style="fill:#E8CC31;" d="M138.524,134.057l-4.071,1.153c-1.022,0.289-1.802,1.238-2.001,2.432l-0.734,4.403
				c-0.142,0.851-1.354,0.881-1.538,0.038l-0.876-4.017c-0.303-1.393-1.277-2.463-2.495-2.744l-3.822-0.881
				c-0.843-0.194-0.873-1.385-0.04-1.621l3.776-1.069c1.202-0.34,2.12-1.456,2.354-2.861l0.676-4.058
				c0.142-0.851,1.354-0.881,1.538-0.038l0.953,4.373c0.256,1.176,1.078,2.079,2.107,2.316l4.133,0.952
				C139.327,132.631,139.357,133.821,138.524,134.057z"/>
			<path style="fill:#E8CC31;" d="M46.863,99.64l-3.017,0.854c-0.757,0.214-1.335,0.917-1.483,1.802l-0.544,3.263
				c-0.105,0.631-1.004,0.653-1.14,0.028l-0.649-2.977c-0.225-1.032-0.946-1.825-1.849-2.033l-2.832-0.653
				c-0.625-0.144-0.647-1.026-0.03-1.201l2.798-0.792c0.891-0.252,1.571-1.079,1.744-2.12l0.501-3.007
				c0.105-0.631,1.004-0.653,1.14-0.028l0.706,3.24c0.19,0.872,0.799,1.541,1.561,1.717l3.063,0.706
				C47.459,98.583,47.481,99.466,46.863,99.64z"/>
			<path style="fill:#E8CC31;" d="M147.282,120.156l-1.471,0.415c-0.67,0.189-1.191,0.845-1.335,1.681l-0.23,1.331
				c-0.167,0.967-1.451,0.974-1.628,0.009l-0.2-1.085c-0.181-0.983-0.802-1.749-1.594-1.963l-1.28-0.346
				c-0.867-0.235-0.874-1.56-0.01-1.804l1.277-0.361c0.788-0.223,1.401-0.994,1.571-1.978l0.188-1.089
				c0.167-0.967,1.451-0.974,1.628-0.009l0.246,1.336c0.153,0.83,0.677,1.476,1.346,1.657l1.482,0.401
				C148.139,118.587,148.146,119.911,147.282,120.156z"/>
			<path style="fill:#E8CC31;" d="M59.447,134.32l-1.471,0.415c-0.67,0.189-1.191,0.845-1.335,1.681l-0.23,1.331
				c-0.167,0.967-1.451,0.974-1.628,0.009l-0.2-1.085c-0.181-0.983-0.802-1.749-1.594-1.963l-1.28-0.346
				c-0.867-0.235-0.874-1.56-0.01-1.804l1.277-0.361c0.788-0.223,1.401-0.994,1.571-1.978l0.188-1.089
				c0.167-0.967,1.451-0.974,1.628-0.009l0.246,1.336c0.153,0.83,0.677,1.476,1.346,1.657l1.482,0.401
				C60.304,132.751,60.311,134.076,59.447,134.32z"/>
			<path style="fill:#E8CC31;" d="M146.512,79.362l-1.824,0.515c-0.831,0.235-1.476,1.047-1.655,2.085l-0.285,1.65
				c-0.207,1.199-1.799,1.208-2.019,0.011l-0.247-1.345c-0.224-1.219-0.995-2.168-1.976-2.434l-1.586-0.429
				c-1.075-0.291-1.084-1.933-0.012-2.236l1.583-0.447c0.977-0.276,1.737-1.232,1.948-2.452l0.233-1.35
				c0.207-1.199,1.799-1.208,2.019-0.011l0.305,1.656c0.189,1.029,0.84,1.83,1.668,2.055l1.837,0.497
				C147.575,77.417,147.584,79.059,146.512,79.362z"/>
		</g>
	</g>
	<g>
		<circle style="fill:#294092;" cx="250.405" cy="101.412" r="68.83"/>
		
			<ellipse transform="matrix(0.2238 -0.9746 0.9746 0.2238 95.5221 322.7674)" style="fill:#EFC825;" cx="250.405" cy="101.412" rx="61.86" ry="61.86"/>
		<g>
			<defs>
				
					<ellipse id="SVGID_00000049217078139154301300000014761054933989199260_" transform="matrix(0.2238 -0.9746 0.9746 0.2238 95.5221 322.7674)" cx="250.405" cy="101.412" rx="61.86" ry="61.86"/>
			</defs>
			<clipPath id="SVGID_00000056391002967799324680000000604340455545737364_">
				<use xlink:href="#SVGID_00000049217078139154301300000014761054933989199260_"  style="overflow:visible;"/>
			</clipPath>
			<g style="clip-path:url(#SVGID_00000056391002967799324680000000604340455545737364_);">
				<g>
					<path style="fill:#E06EA1;" d="M207.735,85.639c0,0-4.051,39.48-6.505,53.202c0,0,2.181,2.182,10.678,3.85l3.447-9.075
						l1.254,11.157c0,0,45.133,2.217,64.514-3.325c19.381-5.542,16.735-6.916,16.735-6.916l-1.397-8.494l4.368,7.828
						c0.094-0.342,9.18-8.779,8.641-8.278c-1.786,1.659-14.689-42.551-19.628-52.169"/>
					<ellipse style="fill:#C2B3D7;" cx="252.614" cy="168.039" rx="46.743" ry="35.873"/>
					<path style="fill:#F2AB8F;" d="M266.985,121.948l-3.557,13.061c0,0-10.948,5.41-22.37,0l-3.319-8.496L266.985,121.948z"/>
					<path style="fill:#E88D6D;" d="M239.339,130.609l-1.6-4.096l28.664-3.011l-2.526,9.893
						C255.381,134.506,247.131,133.35,239.339,130.609z"/>
					<g>
						<path style="fill:#F2AB8F;" d="M290.214,95.618c-1.575,20.177-20.239,35.176-41.688,33.502
							c-21.449-1.674-37.834-15.875-36.26-36.051c1.575-20.177,20.239-35.176,41.688-33.502
							C275.403,61.241,291.788,75.441,290.214,95.618z"/>
						<path style="fill:#E06EA1;" d="M244.198,52.81c-4.777-0.103-35.895,0.651-36.956,37.731c-0.045,1.574,1.323,2.842,2.879,2.607
							c0.469-0.071,2.111,1.179,2.688,0.844c18.251-10.6,19.804-25.198,19.804-25.198c0.163,0.51,12.314,11.424,25.726,10.368
							c7.024-1.401,7.352-8.039,7.352-8.039c11.804,15.595,19.722,17.548,23.798,14.61c2.112-1.522,1.055-1.588,1.244-3.998
							c0.903-11.485-7.275-21.126-14.033-25.994c-9.245-6.659-22.683-7.49-31.307-3.209
							C245.019,52.718,244.616,52.819,244.198,52.81z"/>
						<path style="fill:#E06EA1;" d="M244.799,56.847c0,0-9.043-7.76-6.074-9.095c2.969-1.335,6.212,7.341,6.212,7.341
							s0.466-10.54,3.023-10.927C250.517,43.778,249.432,55.253,244.799,56.847z"/>
						<path style="fill:#E06EA1;" d="M233.752,80.874c0,0-10.407,4.805-8.963,8.277c1.444,3.472,15.105-2.684,16.785-5.425
							C243.253,80.984,239.143,77.341,233.752,80.874z"/>
						<path style="fill:#E06EA1;" d="M267.458,79.782c0,0,10.978,3.295,10.036,6.936c-0.942,3.64-15.332-0.536-17.38-3.015
							C258.067,81.225,261.624,77.041,267.458,79.782z"/>
						<g>
							<path style="fill:none;stroke:#2E3E52;stroke-width:1.1891;stroke-linecap:round;stroke-miterlimit:10;" d="M262.05,99.359
								c-0.801-3.995,1.157-7.757,4.375-8.402c3.218-0.646,6.476,2.07,7.277,6.065"/>
						</g>
						<path style="fill:#FFFFFF;" d="M245.568,97.029c-0.12,4.929-4.213,8.827-9.142,8.707c-4.929-0.12-8.827-4.213-8.707-9.142
							c0.12-4.929,4.213-8.827,9.142-8.707C241.79,88.007,245.689,92.1,245.568,97.029z"/>
						<path style="fill:#2C3C52;" d="M241.765,94.038c2.529,5.398-2.873,10.542-8.141,7.752c-0.917-0.485-1.661-1.267-2.101-2.206
							c-2.528-5.398,2.873-10.541,8.141-7.752C240.581,92.317,241.325,93.099,241.765,94.038z"/>
						<path style="fill:#E88D6D;" d="M242.592,107.542c-0.165,2.11-3.529,4.137-7.46,3.831c-3.931-0.307-6.215-2.49-6.05-4.6
							c0.165-2.11,2.76-3.913,6.691-3.606C239.703,103.473,242.756,105.432,242.592,107.542z"/>
						<path style="fill:#E88D6D;" d="M263.677,105.737c0.396,2.079,3.964,3.723,7.837,2.985c3.873-0.739,5.902-3.161,5.506-5.24
							c-0.396-2.079-3.174-3.585-7.048-2.846C266.099,101.374,263.281,103.658,263.677,105.737z"/>
						<path style="fill:#F2AB8F;" d="M213.894,94.806c0,0-5.115-4.73-10.253-0.8c-5.138,3.93-3.492,14.634,3.106,15.41
							c6.598,0.776,9.37-6.204,9.37-6.204L213.894,94.806z"/>
						<path style="fill:#E88D6D;" d="M210.43,97.43c0,0-3.359-2.562-6.187-0.399c-2.828,2.163-1.922,8.056,1.71,8.483
							c3.632,0.427,5.158-3.415,5.158-3.415L210.43,97.43z"/>
						<path style="fill:#F2AB8F;" d="M287.183,88.31c0,0,4.228-5.537,9.963-2.548c5.736,2.99,5.951,13.818-0.416,15.715
							c-6.367,1.897-10.295-4.504-10.295-4.504L287.183,88.31z"/>
						<path style="fill:#E88D6D;" d="M290.092,90.643c0,0,2.32-3.038,5.467-1.398c3.147,1.641,3.266,7.582-0.228,8.623
							c-3.494,1.041-5.649-2.472-5.649-2.472L290.092,90.643z"/>
						<g>
							<g>
								<path style="fill:#FFFFFF;" d="M250.608,106.285c-2.465-0.401-4.192-1.475-4.329-1.562
									c-0.993-0.632-1.317-2.121-0.726-3.326c0.591-1.203,1.872-1.668,2.862-1.043c0.207,0.127,4.506,2.72,8.379-0.289
									c0.987-0.767,2.274-0.481,2.873,0.644c0.599,1.123,0.283,2.656-0.706,3.424C256,106.436,252.966,106.668,250.608,106.285z"
									/>
							</g>
							<path style="opacity:0.43;fill:#8BBCFC;" d="M259.863,101.209c-0.049-0.172-0.111-0.34-0.195-0.499
								c-0.017-0.033-0.04-0.057-0.059-0.088c-5.922,5.04-12.739,1.901-14.194,1.132c-0.074,0.222-0.121,0.447-0.141,0.673
								c0.748,0.383,2.42,1.14,4.562,1.488C252.71,104.382,256.423,104.104,259.863,101.209z"/>
						</g>
						
							<line style="fill:none;stroke:#2E3E52;stroke-width:1.1891;stroke-linecap:round;stroke-miterlimit:10;" x1="271.921" y1="93.209" x2="275.061" y2="91.289"/>
						
							<line style="fill:none;stroke:#2E3E52;stroke-width:1.1891;stroke-linecap:round;stroke-miterlimit:10;" x1="273.272" y1="96.129" x2="276.512" y2="94.803"/>
					</g>
				</g>
			</g>
		</g>
	</g>
	<g>
		
			<ellipse transform="matrix(0.1637 -0.9865 0.9865 0.1637 239.1657 483.6495)" style="fill:#FF6EA3;" cx="404.839" cy="100.765" rx="68.83" ry="68.83"/>
		<g>
			<defs>
				
					<ellipse id="SVGID_00000056412137605402398480000013572237081832691072_" transform="matrix(0.236 -0.9718 0.9718 0.236 211.3825 470.3902)" cx="404.839" cy="100.765" rx="61.86" ry="61.86"/>
			</defs>
			<use xlink:href="#SVGID_00000056412137605402398480000013572237081832691072_"  style="overflow:visible;fill:#7CCABF;"/>
			<clipPath id="SVGID_00000075133721264812128790000009309414691292307094_">
				<use xlink:href="#SVGID_00000056412137605402398480000013572237081832691072_"  style="overflow:visible;"/>
			</clipPath>
			<g style="clip-path:url(#SVGID_00000075133721264812128790000009309414691292307094_);">
				<ellipse style="fill:#294092;" cx="403.765" cy="179.055" rx="50.129" ry="38.434"/>
				<path style="fill:#FCE1D0;" d="M415.567,130.891l-3.322,12.197c0,0-10.224,5.052-20.891,0l-3.1-7.934L415.567,130.891z"/>
				<path style="fill:#EFBBAF;" d="M389.749,138.978l-1.495-3.825l26.768-2.812l-2.359,9.238
					C404.73,142.617,397.026,141.538,389.749,138.978z"/>
				<g>
					<g>
						<path style="fill:#EFC825;" d="M463.909,102.789c-3.151-4.421-8.527-7.338-11.006-12.113c-2-3.853-1.813-8.368-1.212-12.631
							c0.601-4.263,1.576-8.56,1.01-12.813c-0.783-5.887-4.743-11.362-10.46-14.044c-5.717-2.683-13.053-2.385-18.423,0.967
							c-1.681,1.049-3.135,2.391-4.305,3.919c10.116,0.688,20.74,6.975,22.9,17.117c2.018,11.104-4.177,20.906-12.974,26.901
							c0.372,1.049,0.747,2.097,1.139,3.14c-2.531,5.233-2.021,13.558-1.611,15.747c0.409,2.189,6.186,5.343,6.186,5.343
							l-0.41-5.124c0.77,2.107,1.723,3.941,2.984,5.193c2.063,2.048,7.478,1.93,10.722,1.652c1.516-0.13,1.151-5.659,1.151-5.659
							l3.252,4.574c4.476-1.279,12.03-5.691,13.291-9.847C467.404,110.955,466.456,106.365,463.909,102.789z"/>
						<path style="fill:#FF6EA3;" d="M442.414,73.191c-2.161-10.142-12.784-16.428-22.9-17.117
							c-2.567,3.354-3.76,7.603-2.947,11.605l5.42,4.487c1.724,9.471,4.222,18.813,7.453,27.926
							C438.236,94.097,444.432,84.295,442.414,73.191z"/>
						<g>
							<path style="fill:#FCE1D0;" d="M440.101,108.711c-4.703,20.391-26.148,32.883-47.901,27.902
								c-21.752-4.982-36.392-22.001-31.69-42.392c4.703-20.392,26.148-32.883,47.901-27.902S444.804,88.319,440.101,108.711z"/>
							<path style="fill:#EFC825;" d="M400.06,58.039c0,0-37.903-8.265-44.573,34.35c0,0,0.835,2.361,4.541,1.319
								c5.933-1.668,20.434-6.07,22.212-9.542c1.779-3.471,3.133-13.574,3.133-13.574l2.476,15.123c0,0,23.465,6.924,30.535,2.106
								c2.884-2.319,1.69-12.949,1.69-12.949s10.832,23.419,20.232,22.315c2.682-0.315,1.888-0.157,2.451-2.592
								c2.684-11.606-4.232-22.712-10.422-28.72C423.675,57.469,409.581,54.629,400.06,58.039z"/>
							<path style="fill:#EFC825;" d="M399.433,62.142c0,0-8.092-9.314-4.841-10.226c3.25-0.912,5.251,8.453,5.251,8.453
								s2.09-10.706,4.774-10.713C407.301,49.65,404.431,61.218,399.433,62.142z"/>
							<path style="fill:#EFC825;" d="M381.387,84.316c0,0-11.029,4.432-9.71,8.09s15.789-2.003,17.669-4.749
								C391.227,84.912,387.154,80.942,381.387,84.316z"/>
							<path style="fill:#EFC825;" d="M419.818,86.861c0,0,10.761,5.044,9.237,8.623c-1.524,3.579-15.65-2.886-17.372-5.733
								C409.961,86.904,414.252,83.168,419.818,86.861z"/>
							<g>
								<path style="fill:#FFFFFF;" d="M426.394,106.064c-0.877,5.021-5.674,8.383-10.713,7.509
									c-5.039-0.874-8.412-5.654-7.535-10.676c0.878-5.022,5.674-8.383,10.713-7.509
									C423.898,96.262,427.271,101.042,426.394,106.064z"/>
							</g>
							<path style="fill:#FFFFFF;" d="M394.075,103.347c-0.878,5.022-5.674,8.383-10.713,7.509
								c-5.039-0.874-8.413-5.654-7.535-10.676c0.878-5.022,5.674-8.383,10.713-7.509
								C391.579,93.545,394.953,98.325,394.075,103.347z"/>
							<path style="fill:#2C3C52;" d="M390.933,101.777c-0.041,4.132-4.075,6.96-7.991,5.601c-2.371-0.823-3.997-3.127-3.973-5.629
								c0.041-4.132,4.075-6.96,7.991-5.601C389.332,96.971,390.958,99.275,390.933,101.777z"/>
							<path style="fill:#2C3C52;" d="M422.359,104.482c-0.04,4.132-4.075,6.96-7.991,5.601c-2.371-0.823-3.997-3.127-3.973-5.629
								c0.041-4.132,4.075-6.96,7.991-5.601C420.758,99.677,422.384,101.98,422.359,104.482z"/>
							<path style="fill:#EFBBAF;" d="M389.413,113.643c-0.492,2.132-4.254,3.693-8.241,2.779c-3.987-0.913-5.996-3.494-5.505-5.626
								c0.492-2.132,3.431-3.58,7.417-2.667C387.071,109.042,389.904,111.511,389.413,113.643z"/>
							<path style="fill:#EFBBAF;" d="M411.324,115.012c0.089,2.186,3.498,4.411,7.585,4.247c4.087-0.165,6.54-2.332,6.452-4.518
								c-0.089-2.186-2.709-4.149-6.796-3.985C414.477,110.92,411.236,112.826,411.324,115.012z"/>
							<path style="fill:#FCE1D0;" d="M361.914,96.244c0,0-4.525-5.616-10.398-2.381c-5.873,3.235-5.822,14.432,0.829,16.231
								c6.652,1.8,10.564-4.915,10.564-4.915L361.914,96.244z"/>
							<path style="fill:#EFBBAF;" d="M357.959,98.399c0,0-3.055-3.132-6.288-1.351c-3.233,1.781-3.205,7.944,0.457,8.935
								c3.662,0.991,5.815-2.706,5.815-2.706L357.959,98.399z"/>
							<path style="fill:#FCE1D0;" d="M438.11,100.776c0,0,5.185-5.018,10.613-1.086c5.428,3.932,3.993,15.037-2.831,16.006
								c-6.824,0.969-9.875-6.175-9.875-6.175L438.11,100.776z"/>
							<path style="fill:#EFBBAF;" d="M440.737,103.605c0,0,2.845-2.753,5.823-0.596c2.978,2.157,2.191,8.251-1.554,8.783
								c-3.744,0.532-5.418-3.388-5.418-3.388L440.737,103.605z"/>
							<g>
								<g>
									<path style="fill:#FFFFFF;" d="M397.105,115.826c-2.933-0.934-4.89-2.406-5.045-2.525
										c-1.123-0.861-1.333-2.467-0.468-3.586c0.863-1.117,2.47-1.326,3.591-0.472c0.234,0.175,5.116,3.757,10.172,1.47
										c1.289-0.584,2.811-0.016,3.397,1.271c0.586,1.286,0.015,2.801-1.275,3.385
										C403.61,117.119,399.911,116.719,397.105,115.826z"/>
								</g>
								<path style="opacity:0.43;fill:#9CB7E0;" d="M408.927,112.539c-0.038-0.188-0.092-0.374-0.175-0.556
									c-0.017-0.037-0.042-0.068-0.061-0.104c-7.785,3.953-15.646-0.725-17.311-1.825c-0.117,0.213-0.202,0.435-0.253,0.665
									c0.858,0.554,2.788,1.687,5.336,2.498C399.882,114.305,404.408,114.801,408.927,112.539z"/>
							</g>
							<g>
								<path style="fill:#9CB7E0;" d="M429.263,83.432c-10.148-2.504-20.407,3.376-23.427,13.221
									c-0.173-0.048-0.342-0.101-0.517-0.144c-2.202-0.543-4.408-0.687-6.546-0.486c-0.706-8.082-6.457-15.19-14.801-17.249
									c-10.498-2.59-21.116,3.79-23.715,14.252c-2.599,10.462,3.803,21.043,14.302,23.633c10.498,2.59,21.116-3.79,23.715-14.252
									c0.296-1.191,0.469-2.383,0.539-3.565c1.899-0.205,3.866-0.088,5.828,0.396c0.192,0.047,0.377,0.107,0.566,0.161
									c-1.541,9.88,4.719,19.47,14.643,21.919c10.498,2.59,21.116-3.79,23.715-14.252
									C446.164,96.604,439.761,86.023,429.263,83.432z M375.236,113.93c-8.986-2.217-14.466-11.274-12.241-20.229
									c2.225-8.955,11.313-14.416,20.299-12.199c8.986,2.217,14.466,11.274,12.241,20.229
									C393.31,110.686,384.222,116.147,375.236,113.93z M420.528,118.589c-8.986-2.217-14.466-11.274-12.241-20.229
									c2.225-8.955,11.313-14.416,20.299-12.199c8.986,2.217,14.466,11.274,12.241,20.229
									C438.601,115.344,429.513,120.806,420.528,118.589z"/>
								<path style="fill:#8380B9;" d="M428.522,82.208c-10.148-2.504-20.407,3.376-23.427,13.221
									c-0.173-0.048-0.342-0.101-0.517-0.144c-2.202-0.543-4.408-0.687-6.546-0.486c-0.706-8.082-6.457-15.19-14.801-17.249
									c-10.498-2.59-21.116,3.79-23.715,14.252c-2.6,10.462,3.803,21.043,14.302,23.633c10.498,2.59,21.116-3.79,23.715-14.252
									c0.296-1.191,0.469-2.383,0.539-3.565c1.899-0.204,3.866-0.088,5.828,0.396c0.192,0.048,0.377,0.107,0.566,0.161
									c-1.541,9.88,4.719,19.47,14.643,21.919c10.498,2.59,21.116-3.79,23.715-14.252C445.423,95.38,439.02,84.799,428.522,82.208
									z M374.495,112.706c-8.986-2.217-14.466-11.274-12.241-20.229c2.225-8.955,11.313-14.416,20.299-12.199
									c8.986,2.217,14.466,11.274,12.241,20.229C392.568,109.462,383.48,114.923,374.495,112.706z M419.786,117.365
									c-8.986-2.217-14.466-11.274-12.241-20.229c2.225-8.955,11.313-14.416,20.299-12.199
									c8.986,2.217,14.466,11.274,12.241,20.228C437.86,114.12,428.772,119.582,419.786,117.365z"/>
							</g>
						</g>
					</g>
				</g>
			</g>
		</g>
		<path style="fill:#2C3C52;" d="M445.376,138.352l-4.169,1.18c-1.046,0.296-1.845,1.267-2.049,2.49l-0.751,4.509
			c-0.145,0.871-1.387,0.902-1.575,0.039l-0.896-4.113c-0.311-1.427-1.307-2.522-2.555-2.81l-3.913-0.902
			c-0.864-0.199-0.894-1.418-0.041-1.66l3.866-1.095c1.231-0.349,2.171-1.491,2.41-2.93l0.692-4.155
			c0.145-0.871,1.387-0.902,1.575-0.039l0.976,4.477c0.263,1.204,1.103,2.129,2.157,2.372l4.232,0.975
			C446.198,136.891,446.228,138.111,445.376,138.352z"/>
		<path style="fill:#2C3C52;" d="M366.448,126.588l-3.676,0.998c-0.923,0.251-1.628,1.069-1.809,2.099l-0.667,3.798
			c-0.129,0.734-1.223,0.761-1.388,0.034l-0.786-3.464c-0.273-1.201-1.15-2.123-2.25-2.364l-3.449-0.756
			c-0.761-0.167-0.787-1.194-0.035-1.398l3.409-0.926c1.086-0.295,1.915-1.258,2.128-2.47l0.614-3.5
			c0.129-0.734,1.223-0.761,1.388-0.034l0.856,3.77c0.23,1.014,0.971,1.792,1.899,1.996l3.73,0.817
			C367.175,125.357,367.2,126.384,366.448,126.588z"/>
		<path style="fill:#2C3C52;" d="M462.171,84.868l-1.471,0.415c-0.67,0.189-1.191,0.845-1.335,1.681l-0.23,1.331
			c-0.167,0.967-1.451,0.974-1.628,0.009l-0.199-1.085c-0.181-0.983-0.802-1.749-1.594-1.963l-1.28-0.346
			c-0.867-0.235-0.874-1.56-0.01-1.804l1.277-0.361c0.788-0.223,1.401-0.994,1.571-1.978l0.188-1.089
			c0.167-0.967,1.451-0.974,1.628-0.009l0.246,1.336c0.153,0.83,0.677,1.476,1.346,1.657l1.482,0.401
			C463.029,83.299,463.036,84.623,462.171,84.868z"/>
		<path style="fill:#2C3C52;" d="M417.967,48.941l-1.475,0.414c-0.672,0.189-1.194,0.843-1.339,1.677l-0.231,1.327
			c-0.168,0.965-1.455,0.972-1.633,0.009l-0.2-1.082c-0.181-0.981-0.805-1.744-1.599-1.958l-1.283-0.346
			c-0.87-0.234-0.877-1.556-0.01-1.799l1.281-0.36c0.791-0.222,1.405-0.991,1.576-1.973l0.189-1.086
			c0.168-0.965,1.455-0.972,1.633-0.009l0.246,1.333c0.153,0.828,0.679,1.473,1.35,1.653l1.486,0.4
			C418.827,47.376,418.835,48.698,417.967,48.941z"/>
		<path style="fill:#2C3C52;" d="M372.61,138.6l-1.471,0.415c-0.67,0.189-1.191,0.845-1.335,1.681l-0.23,1.331
			c-0.167,0.967-1.451,0.974-1.629,0.009l-0.199-1.085c-0.181-0.983-0.802-1.749-1.594-1.963l-1.28-0.346
			c-0.867-0.235-0.874-1.56-0.01-1.804l1.277-0.361c0.788-0.223,1.401-0.994,1.571-1.978l0.188-1.089
			c0.167-0.967,1.451-0.974,1.629-0.009l0.246,1.336c0.153,0.83,0.677,1.476,1.346,1.657l1.482,0.401
			C373.467,137.031,373.475,138.356,372.61,138.6z"/>
	</g>
	<g>
		<circle style="fill:#F6E1DA;" cx="95.161" cy="248.969" r="68.83"/>
		<g>
			<defs>
				
					<ellipse id="SVGID_00000062184153765433155770000011869028001774565302_" transform="matrix(0.2238 -0.9746 0.9746 0.2238 -168.7906 285.994)" cx="95.161" cy="248.969" rx="61.86" ry="61.86"/>
			</defs>
			<use xlink:href="#SVGID_00000062184153765433155770000011869028001774565302_"  style="overflow:visible;fill:#2C3C52;"/>
			<clipPath id="SVGID_00000041267458968872595040000016726285865282503829_">
				<use xlink:href="#SVGID_00000062184153765433155770000011869028001774565302_"  style="overflow:visible;"/>
			</clipPath>
			<g style="clip-path:url(#SVGID_00000041267458968872595040000016726285865282503829_);">
				<path style="fill:#C2B3D7;" d="M52.924,231.611c0,0-6.86,40.099-7.393,45.662c-0.533,5.563,13.671,7.533,15.624,6.68
					l1.338-7.911l1.821,8.214c0,0,48.864,2.861,72.311-9.655l-0.181-6.671l3.295,5.557c2.551-0.587,10.934-5.904,11.476-9.387
					c0.542-3.483-10.524-30.884-12.044-35.565C137.652,223.853,52.924,231.611,52.924,231.611z"/>
				<ellipse style="fill:#E29ACE;" cx="99.937" cy="312.392" rx="46.243" ry="28.08"/>
				<path style="fill:#F1CEAD;" d="M85.788,278.48l3.044,11.471c0,0,9.37,4.751,19.146,0l2.841-7.462L85.788,278.48z"/>
				<path style="fill:#F6E1DA;" d="M109.449,286.087l1.37-3.597l-24.532-2.644l2.162,8.689
					C95.719,289.509,102.78,288.494,109.449,286.087z"/>
				<path style="fill:#EDCFAF;" d="M138.057,249.52c-2.046,21.354-22.107,36.902-44.807,34.727
					c-22.701-2.175-39.8-17.532-37.754-38.886c2.046-21.354,22.107-36.902,44.808-34.727
					C123.004,212.81,140.104,228.167,138.057,249.52z"/>
				<path style="fill:#C2B3D7;" d="M74.658,234.161c0,0-10.582,5.97-8.758,9.514c1.824,3.544,15.728-4.134,17.267-7.174
					C84.705,233.46,80.05,229.964,74.658,234.161z"/>
				<path style="fill:#C2B3D7;" d="M114.597,230.003c0,0,11.574,3.698,10.507,7.538c-1.066,3.84-16.239-0.855-18.363-3.52
					C104.617,231.356,108.466,226.988,114.597,230.003z"/>
				<path style="fill:#C2B3D7;" d="M91.29,203.779c0,0-36.076-6.069-40.571,40.846c0,0,1.16,2.289,4.776,0.737
					c5.788-2.484,19.89-8.888,21.229-12.653c1.339-3.765,1.362-14.215,1.362-14.215l4.526,15.044c0,0,24.695,3.918,31.215-1.919
					c2.612-2.74-0.015-13.388-0.015-13.388s14.098,22.366,23.474,19.994c2.675-0.677,1.892-0.411,2.137-2.961
					c1.17-12.155-7.318-22.525-14.39-27.81C115.138,200.059,100.481,199.046,91.29,203.779z"/>
				<g>
					<path style="fill:#FFFFFF;" d="M123.818,248.65c-0.22,5.221-4.63,9.276-9.852,9.056c-5.221-0.22-9.276-4.63-9.056-9.852
						c0.22-5.221,4.63-9.276,9.852-9.057C119.983,239.018,124.038,243.429,123.818,248.65z"/>
				</g>
				<path style="fill:#FFFFFF;" d="M90.715,250.181c-0.219,5.221-4.63,9.276-9.852,9.057c-5.221-0.22-9.276-4.631-9.056-9.852
					c0.22-5.221,4.63-9.276,9.852-9.056C86.88,240.549,90.935,244.96,90.715,250.181z"/>
				<path style="fill:#CD5C4B;" d="M81.528,255.792c-3.412,0.889-8.65-5.205-7.294-8.506c2.36-5.745,6.595,0.008,6.595,0.008
					s0.145-4.087,4.421-3.215C89.525,244.952,86.62,254.721,81.528,255.792"/>
				<path style="fill:#CD5C4B;" d="M114.385,254.245c3.513,0.303,7.651-6.586,5.759-9.611c-3.293-5.266-6.499,1.117-6.499,1.117
					s-0.83-4.004-4.898-2.426C104.678,244.904,109.184,254.046,114.385,254.245"/>
				<path style="fill:#DAA186;" d="M87.364,261.268c-0.214,2.233-3.818,4.319-7.978,3.92c-4.161-0.399-6.54-2.756-6.326-4.989
					c0.214-2.233,2.998-4.095,7.159-3.697C84.379,256.901,87.578,259.035,87.364,261.268z"/>
				<path style="fill:#DAA186;" d="M109.744,259.749c0.381,2.211,4.131,4.02,8.25,3.31c4.119-0.71,6.315-3.239,5.934-5.45
					c-0.381-2.211-3.297-3.858-7.416-3.148C112.393,255.171,109.363,257.538,109.744,259.749z"/>
				<g>
					<path style="fill:#CD5C4B;" d="M99.162,258.288c-1.182-1.307-3.362-1.208-4.817-0.955c0.05,1.523,0.986,3.283,3.543,3.96
						c3.326,0.879,5.388-0.319,6.262-1.809C102.69,257.024,99.162,258.288,99.162,258.288z"/>
					<path style="fill:#2C3C52;" d="M99.162,258.288c0,0,3.528-1.264,4.988,1.195c0.733-1.251,0.629-2.707-0.278-3.316
						c-1.987-1.334-2.959,0.812-4.804-0.148c-0.774-0.403-1.424-1.365-3.259-1.248c-0.861,0.055-1.507,1.216-1.463,2.562
						C95.8,257.08,97.979,256.981,99.162,258.288z"/>
				</g>
				<path style="fill:#EDCFAF;" d="M57.188,247.233c0,0-5.332-5.108-10.851-1.04c-5.519,4.069-3.975,15.444,3.004,16.39
					c6.979,0.946,10.046-6.4,10.046-6.4L57.188,247.233z"/>
				<path style="fill:#DAA186;" d="M53.468,249.949c0,0-3.512-2.778-6.55-0.539s-2.188,8.502,1.653,9.022
					c3.842,0.521,5.53-3.523,5.53-3.523L53.468,249.949z"/>
				<path style="fill:#EDCFAF;" d="M134.983,241.719c0,0,4.584-5.789,10.607-2.513s6.049,14.756-0.735,16.647
					c-6.784,1.891-10.827-4.966-10.827-4.966L134.983,241.719z"/>
				<path style="fill:#DAA186;" d="M138.021,244.246c0,0,2.515-3.177,5.82-1.379c3.305,1.798,3.319,8.097-0.403,9.135
					c-3.722,1.038-5.941-2.725-5.941-2.725L138.021,244.246z"/>
				<path style="fill:#C2B3D7;" d="M91.203,208.033c0,0-9.44-8.392-6.269-9.752c3.171-1.359,6.447,7.895,6.447,7.895
					s0.689-11.162,3.407-11.525C97.506,194.288,96.143,206.43,91.203,208.033z"/>
			</g>
		</g>
		<g>
			<path style="fill:#FFFFFF;" d="M141.951,283.104l-2.975,0.842c-0.747,0.211-1.317,0.904-1.462,1.777l-0.536,3.217
				c-0.104,0.622-0.99,0.644-1.124,0.028l-0.64-2.935c-0.222-1.018-0.933-1.799-1.823-2.005l-2.792-0.643
				c-0.616-0.142-0.638-1.012-0.029-1.184l2.759-0.781c0.878-0.249,1.549-1.064,1.72-2.09l0.494-2.965
				c0.104-0.622,0.99-0.644,1.124-0.028l0.696,3.195c0.187,0.859,0.788,1.519,1.539,1.693l3.02,0.696
				C142.538,282.062,142.559,282.932,141.951,283.104z"/>
			<path style="fill:#FFFFFF;" d="M61.496,290.714l-1.325,0.374c-0.604,0.171-1.073,0.761-1.203,1.515l-0.207,1.199
				c-0.151,0.871-1.307,0.878-1.467,0.008l-0.18-0.978c-0.163-0.886-0.723-1.575-1.436-1.769l-1.153-0.312
				c-0.781-0.211-0.788-1.405-0.009-1.625l1.151-0.325c0.71-0.201,1.262-0.895,1.415-1.782l0.169-0.981
				c0.151-0.872,1.307-0.878,1.467-0.008l0.221,1.204c0.138,0.748,0.61,1.33,1.212,1.493l1.335,0.361
				C62.268,289.3,62.275,290.494,61.496,290.714z"/>
			<path style="fill:#FFFFFF;" d="M61.496,210.559l-1.325,0.374c-0.604,0.171-1.073,0.761-1.203,1.515l-0.207,1.199
				c-0.151,0.871-1.307,0.878-1.467,0.008l-0.18-0.977c-0.163-0.886-0.723-1.575-1.436-1.769l-1.153-0.312
				c-0.781-0.211-0.788-1.405-0.009-1.625l1.151-0.325c0.71-0.201,1.262-0.895,1.415-1.782l0.169-0.981
				c0.151-0.872,1.307-0.878,1.467-0.008l0.221,1.204c0.138,0.748,0.61,1.33,1.212,1.493l1.335,0.361
				C62.268,209.145,62.275,210.339,61.496,210.559z"/>
			<path style="fill:#FFFFFF;" d="M150.787,230.204l-1.471,0.415c-0.67,0.189-1.191,0.845-1.335,1.681l-0.23,1.331
				c-0.167,0.967-1.451,0.974-1.629,0.009l-0.199-1.085c-0.181-0.983-0.802-1.748-1.594-1.963l-1.279-0.346
				c-0.867-0.235-0.874-1.56-0.01-1.804l1.277-0.361c0.788-0.223,1.401-0.994,1.571-1.978l0.188-1.089
				c0.167-0.967,1.451-0.974,1.628-0.009l0.246,1.336c0.153,0.83,0.677,1.476,1.346,1.657l1.482,0.401
				C151.644,228.635,151.652,229.96,150.787,230.204z"/>
			<path style="fill:#FFFFFF;" d="M51.598,229.207l-1.824,0.515c-0.831,0.235-1.476,1.047-1.655,2.085l-0.285,1.65
				c-0.207,1.199-1.799,1.208-2.019,0.011l-0.247-1.345c-0.224-1.219-0.995-2.168-1.976-2.434l-1.586-0.429
				c-1.075-0.291-1.084-1.933-0.012-2.236l1.583-0.447c0.977-0.276,1.737-1.232,1.948-2.452l0.233-1.35
				c0.207-1.199,1.799-1.208,2.019-0.011l0.305,1.656c0.189,1.029,0.84,1.83,1.668,2.055l1.837,0.497
				C52.661,227.262,52.67,228.904,51.598,229.207z"/>
		</g>
	</g>
	<g>
		<circle style="fill:#7CCABF;" cx="404.839" cy="248.598" r="68.83"/>
		<g>
			<defs>
				
					<ellipse id="SVGID_00000031204888223411478550000014712420055068226968_" transform="matrix(0.236 -0.9718 0.9718 0.236 67.7251 583.3362)" cx="404.839" cy="248.598" rx="61.86" ry="61.86"/>
			</defs>
			<clipPath id="SVGID_00000132786859192391618110000014597241844366240903_">
				<use xlink:href="#SVGID_00000031204888223411478550000014712420055068226968_"  style="overflow:visible;"/>
			</clipPath>
			
				<ellipse transform="matrix(0.236 -0.9718 0.9718 0.236 67.7251 583.3362)" style="clip-path:url(#SVGID_00000132786859192391618110000014597241844366240903_);fill:#C2B3D7;" cx="404.839" cy="248.598" rx="61.86" ry="61.86"/>
			
				<ellipse style="clip-path:url(#SVGID_00000132786859192391618110000014597241844366240903_);fill:#EA6868;" cx="406.375" cy="317.238" rx="51.107" ry="31.034"/>
			<path style="clip-path:url(#SVGID_00000132786859192391618110000014597241844366240903_);fill:#F2AB8F;" d="M390.737,279.759
				l3.364,12.678c0,0,10.356,5.251,21.16,0l3.14-8.247L390.737,279.759z"/>
			<path style="clip-path:url(#SVGID_00000132786859192391618110000014597241844366240903_);fill:#E88D6D;" d="M416.888,288.166
				l1.514-3.976l-27.113-2.923l2.39,9.603C401.713,291.948,409.516,290.826,416.888,288.166z"/>
			<g style="clip-path:url(#SVGID_00000132786859192391618110000014597241844366240903_);">
				<g>
					<g>
						<path style="fill:#2C3C52;" d="M448.733,258.389c-5.866,20.282-30.289,31.035-54.551,24.018
							c-24.262-7.016-40.197-25.615-34.331-45.897c5.865-20.282,30.289-31.035,54.551-24.019
							C438.664,219.509,454.598,238.108,448.733,258.389z"/>
						<path style="fill:#F2AB8F;" d="M445.921,258.529c-6.129,21.192-29.36,33.09-51.888,26.575
							c-22.529-6.515-36.89-25.287-30.761-46.479c6.129-21.192,29.36-33.09,51.888-26.575
							C437.688,218.564,452.049,237.336,445.921,258.529z"/>
						<g>
							<path style="fill:#2C3C52;" d="M418.333,198.489c-25.559-7.392-51.915,6.107-58.869,30.15
								c-0.33,1.141-1.73,8.898-1.957,10.026c0,0,4.452,0.555,5.764-0.04c7.161-3.246,11.104-13.761,11.104-13.761l7.006,1.284
								l3.509-7.637l1.147,8.491l9.935,1.821l4.033-8.778l1.319,9.759l18.245,3.344l3.001-6.531l0.981,7.26l6.105,1.119
								l5.181-11.277l1.694,12.537l5.973,1.095c0,0,1.913,10.946,4.82,12.706c1.18,0.714,5.477-0.657,5.477-0.657
								C457.183,219.387,441.663,205.236,418.333,198.489z"/>
						</g>
						<path style="fill:#2C3C52;" d="M386.419,230.156c0,0-11.83,4.021-10.661,7.95c1.169,3.929,16.681-1.187,18.815-3.967
							C396.706,231.358,392.666,226.94,386.419,230.156z"/>
						<path style="fill:#2C3C52;" d="M424.779,234.886c0,0,10.993,5.938,9.185,9.617c-1.808,3.679-16.25-3.952-17.889-7.05
							C414.435,234.355,419.155,230.673,424.779,234.886z"/>
						<path style="fill:#FFFFFF;" d="M397.949,250.193c-1.215,5.235-6.444,8.494-11.679,7.279c-5.235-1.215-8.494-6.444-7.28-11.679
							c1.215-5.235,6.444-8.494,11.679-7.279C395.905,239.729,399.164,244.958,397.949,250.193z"/>
						<path style="fill:#2C3C52;" d="M394.548,246.162c1.509,6.32-5.391,10.621-10.4,6.481c-0.872-0.72-1.494-1.719-1.756-2.818
							c-1.509-6.32,5.391-10.62,10.4-6.481C393.663,244.064,394.286,245.062,394.548,246.162z"/>
						<path style="fill:#E88D6D;" d="M392.454,260.76c-0.641,2.216-4.68,3.639-8.809,2.445c-4.129-1.194-6.086-4.029-5.445-6.245
							c0.641-2.216,3.809-3.569,7.938-2.375C390.267,255.78,393.095,258.544,392.454,260.76z"/>
						<path style="fill:#FFFFFF;" d="M410.725,251.717c-0.051,5.374,4.265,9.771,9.639,9.822c5.374,0.051,9.771-4.265,9.822-9.639
							c0.05-5.374-4.265-9.771-9.639-9.822C415.173,242.027,410.775,246.343,410.725,251.717z"/>
						<path style="fill:#2C3C52;" d="M414.978,248.599c-2.953,5.788,2.742,11.591,8.584,8.745c1.017-0.495,1.856-1.319,2.37-2.326
							c2.953-5.788-2.742-11.59-8.584-8.745C416.332,246.768,415.492,247.592,414.978,248.599z"/>
						<path style="fill:#E88D6D;" d="M413.58,263.28c0.102,2.305,3.693,4.637,7.987,4.448c4.294-0.189,6.863-2.484,6.761-4.789
							c-0.102-2.305-2.862-4.364-7.157-4.175C416.877,258.954,413.479,260.976,413.58,263.28z"/>
						<path style="fill:#F2AB8F;" d="M364.625,240.838c0,0-4.417-6.177-10.768-3.114c-6.351,3.063-6.954,14.853-0.081,17.136
							c6.873,2.283,11.37-4.557,11.37-4.557L364.625,240.838z"/>
						<path style="fill:#E88D6D;" d="M360.349,242.876c0,0-3.021-3.476-6.517-1.79c-3.496,1.686-3.828,8.176-0.045,9.433
							c3.783,1.257,6.259-2.509,6.259-2.509L360.349,242.876z"/>
						<path style="fill:#F2AB8F;" d="M444.297,250.059c0,0,5.733-4.979,11.198-0.523c5.464,4.456,3.307,16.063-3.908,16.684
							c-7.216,0.621-9.998-7.078-9.998-7.078L444.297,250.059z"/>
						<path style="fill:#E88D6D;" d="M446.887,253.191c0,0,3.146-2.732,6.144-0.287s1.815,8.814-2.145,9.155
							c-3.959,0.341-5.486-3.884-5.486-3.884L446.887,253.191z"/>
						<g>
							<g>
								<path style="fill:none;stroke:#2C3C52;stroke-width:1.709;stroke-linecap:round;stroke-miterlimit:10;" d="M408.435,256.369
									c0,0-5.006,3.153-9.014-1.296"/>
							</g>
						</g>
					</g>
				</g>
			</g>
		</g>
		<g>
			<path style="fill:#E8CC31;" d="M374.821,282.527l-4.071,1.153c-1.022,0.289-1.802,1.238-2.001,2.432l-0.733,4.403
				c-0.142,0.851-1.354,0.881-1.538,0.038l-0.875-4.017c-0.304-1.393-1.277-2.463-2.495-2.744l-3.822-0.881
				c-0.844-0.194-0.873-1.385-0.04-1.621l3.776-1.069c1.202-0.34,2.12-1.456,2.354-2.861l0.676-4.058
				c0.142-0.851,1.354-0.881,1.538-0.038l0.953,4.373c0.256,1.176,1.078,2.08,2.107,2.317l4.133,0.952
				C375.625,281.1,375.654,282.291,374.821,282.527z"/>
			<path style="fill:#E8CC31;" d="M360.648,264.779l-3.017,0.854c-0.757,0.214-1.335,0.917-1.483,1.802l-0.544,3.263
				c-0.105,0.631-1.004,0.653-1.14,0.028l-0.649-2.977c-0.225-1.032-0.946-1.825-1.849-2.033l-2.832-0.653
				c-0.625-0.144-0.647-1.026-0.03-1.201l2.798-0.792c0.891-0.252,1.571-1.079,1.744-2.12l0.501-3.007
				c0.105-0.631,1.004-0.653,1.14-0.028l0.706,3.24c0.19,0.872,0.799,1.541,1.561,1.717l3.063,0.706
				C361.243,263.722,361.265,264.604,360.648,264.779z"/>
			<path style="fill:#E8CC31;" d="M449.567,280.314l-1.471,0.415c-0.67,0.189-1.191,0.845-1.335,1.681l-0.23,1.331
				c-0.167,0.967-1.451,0.974-1.629,0.009l-0.199-1.085c-0.181-0.983-0.802-1.749-1.594-1.963l-1.28-0.346
				c-0.867-0.235-0.874-1.56-0.01-1.804l1.277-0.361c0.788-0.223,1.401-0.994,1.571-1.978l0.188-1.089
				c0.167-0.967,1.451-0.974,1.629-0.009l0.246,1.336c0.153,0.83,0.677,1.476,1.346,1.657l1.482,0.401
				C450.424,278.745,450.431,280.07,449.567,280.314z"/>
			<path style="fill:#E8CC31;" d="M373.935,209.813l-1.471,0.415c-0.67,0.189-1.191,0.845-1.335,1.681l-0.23,1.331
				c-0.167,0.967-1.451,0.974-1.629,0.009l-0.199-1.085c-0.181-0.983-0.802-1.749-1.594-1.963l-1.28-0.346
				c-0.867-0.235-0.874-1.559-0.01-1.804l1.277-0.361c0.788-0.223,1.401-0.994,1.571-1.978l0.188-1.089
				c0.167-0.967,1.451-0.974,1.629-0.009l0.246,1.336c0.153,0.83,0.677,1.476,1.346,1.657l1.482,0.401
				C374.792,208.244,374.799,209.568,373.935,209.813z"/>
			<path style="fill:#E8CC31;" d="M460.615,238.524l-1.824,0.515c-0.831,0.235-1.476,1.047-1.655,2.085l-0.285,1.65
				c-0.207,1.199-1.799,1.208-2.019,0.011l-0.247-1.345c-0.224-1.219-0.995-2.168-1.976-2.434l-1.586-0.429
				c-1.075-0.291-1.084-1.934-0.012-2.236l1.583-0.447c0.977-0.276,1.737-1.232,1.948-2.452l0.233-1.35
				c0.207-1.199,1.799-1.208,2.019-0.011l0.305,1.656c0.189,1.029,0.84,1.83,1.668,2.055l1.837,0.497
				C461.678,236.579,461.687,238.222,460.615,238.524z"/>
		</g>
	</g>
	<g>
		<circle style="fill:#FF6EA3;" cx="95.161" cy="395.933" r="68.83"/>
		<g>
			<defs>
				
					<ellipse id="SVGID_00000026870035971726340450000002014821681396669374_" transform="matrix(0.7071 -0.7071 0.7071 0.7071 -252.0945 183.2552)" cx="95.161" cy="395.933" rx="61.86" ry="61.86"/>
			</defs>
			<clipPath id="SVGID_00000093172832074907891220000002552419644605564580_">
				<use xlink:href="#SVGID_00000026870035971726340450000002014821681396669374_"  style="overflow:visible;"/>
			</clipPath>
			
				<ellipse transform="matrix(0.7071 -0.7071 0.7071 0.7071 -252.0945 183.2552)" style="clip-path:url(#SVGID_00000093172832074907891220000002552419644605564580_);fill:#C2B3D7;" cx="95.161" cy="395.933" rx="61.86" ry="61.86"/>
			
				<ellipse transform="matrix(0.9995 -0.0305 0.0305 0.9995 -13.9933 3.1969)" style="clip-path:url(#SVGID_00000093172832074907891220000002552419644605564580_);fill:#7CCABF;" cx="97.83" cy="460.449" rx="47.833" ry="29.046"/>
			<path style="clip-path:url(#SVGID_00000093172832074907891220000002552419644605564580_);fill:#816169;" d="M111.39,424.941
				l-2.786,11.956c0,0-9.538,5.208-19.795,0.604l-3.173-7.625L111.39,424.941z"/>
			<path style="clip-path:url(#SVGID_00000093172832074907891220000002552419644605564580_);fill:#816169;" d="M87.166,433.551
				l-1.53-3.676l25.281-3.508l-1.961,9.051C101.47,436.657,94.138,435.83,87.166,433.551z"/>
			<g style="clip-path:url(#SVGID_00000093172832074907891220000002552419644605564580_);">
				<g>
					<g>
						<path style="fill:#2C3C52;" d="M56.525,406.604c6.066,18.806,29.221,28.169,51.718,20.913
							c22.497-7.256,36.873-25.11,30.807-43.916c-6.066-18.806-29.221-28.169-51.718-20.913
							C64.835,369.944,50.459,387.798,56.525,406.604z"/>
						<path style="fill:#2C3C52;" d="M76.197,418.021c0,0,7.012,10.521-4.828,13.648c0,0-3.118,7.72-12.161,2.595
							c0,0-8.742,2.713-10.605-6.667c0,0-8.223-6.226-1.299-10.903c0,0,0.06-8.19,11.587-9.358"/>
						<ellipse style="fill:#EFC825;" cx="75.744" cy="410.948" rx="16.677" ry="14.442"/>
						<path style="fill:#2C3C52;" d="M126.093,399.906c0,0,8.932-8.948,14.332,2.042c0,0,11.324,0.062,7.785,11.983
							c0,0,2.036,11.617-7.288,11.14c0,0-4.482,9.289-10.433,3.423c0,0-8.041,1.556-11.459-9.514"/>
						
							<ellipse transform="matrix(0.5866 -0.8099 0.8099 0.5866 -278.3412 267.2771)" style="fill:#EFC825;" cx="122.643" cy="406.29" rx="16.677" ry="14.442"/>
						<path style="fill:#8D7472;" d="M59.16,406.654c6.338,19.651,28.41,30.118,49.3,23.38c20.89-6.738,33.789-24.709,27.451-44.359
							c-6.338-19.651-28.41-30.118-49.3-23.381C65.722,369.032,52.822,387.003,59.16,406.654z"/>
						<path style="fill:#2C3C52;" d="M114.014,380.613c0,0,11.182,3.424,10.2,7.133c-0.982,3.709-15.639-0.634-17.714-3.174
							C104.425,382.031,108.078,377.783,114.014,380.613z"/>
						<path style="fill:#2C3C52;" d="M78.264,386.133c0,0-10.115,5.869-8.318,9.259c1.796,3.39,15.089-4.161,16.534-7.105
							C87.925,385.341,83.404,382.031,78.264,386.133z"/>
						<path style="fill:#FFFFFF;" d="M103.8,399.687c1.286,4.863,6.271,7.762,11.133,6.477c4.863-1.286,7.762-6.271,6.477-11.133
							c-1.286-4.863-6.271-7.763-11.133-6.477C105.414,389.84,102.514,394.824,103.8,399.687z"/>
						<path style="fill:#2C3C52;" d="M106.866,395.819c-1.232,5.956,5.346,9.782,9.914,5.766c0.795-0.699,1.348-1.65,1.563-2.687
							c1.231-5.956-5.346-9.781-9.914-5.766C107.634,393.831,107.081,394.783,106.866,395.819z"/>
						<path style="fill:#816169;" d="M109.242,409.416c0.663,2.055,4.482,3.271,8.31,2.036c3.829-1.235,5.578-3.942,4.916-5.997
							c-0.663-2.055-3.665-3.23-7.493-1.995C111.146,404.694,108.579,407.361,109.242,409.416z"/>
						<path style="fill:#FFFFFF;" d="M91.891,401.477c0.201,5.026-3.711,9.263-8.737,9.464c-5.026,0.201-9.263-3.711-9.464-8.737
							c-0.201-5.026,3.711-9.263,8.737-9.464C87.454,392.54,91.691,396.451,91.891,401.477z"/>
						<path style="fill:#2C3C52;" d="M87.823,398.682c2.928,5.331-2.234,10.921-7.781,8.426c-0.965-0.434-1.774-1.181-2.284-2.109
							c-2.928-5.33,2.234-10.921,7.781-8.426C86.505,397.007,87.314,397.754,87.823,398.682z"/>
						<path style="fill:#816169;" d="M89.55,412.376c-0.029,2.159-3.322,4.444-7.345,4.389c-4.022-0.055-6.491-2.128-6.462-4.287
							c0.029-2.159,2.553-4.165,6.576-4.11C86.342,408.423,89.579,410.217,89.55,412.376z"/>
						<path style="fill:#8D7472;" d="M134.707,387.784c0,0,3.956-5.904,9.985-3.221c6.029,2.684,6.929,13.696,0.565,16.028
							c-6.365,2.332-10.767-3.939-10.767-3.939L134.707,387.784z"/>
						<path style="fill:#816169;" d="M138.766,389.569c0,0,2.727-3.338,6.046-1.861s3.814,7.539,0.311,8.823
							c-3.503,1.284-5.927-2.168-5.927-2.168L138.766,389.569z"/>
						<path style="fill:#8D7472;" d="M60.438,398.685c0,0-5.506-4.495-10.49-0.17c-4.985,4.325-2.636,15.121,4.132,15.497
							c6.768,0.375,9.151-6.907,9.151-6.907L60.438,398.685z"/>
						<path style="fill:#816169;" d="M58.103,401.688c0,0-3.021-2.466-5.756-0.093c-2.735,2.373-1.446,8.297,2.267,8.503
							c3.714,0.206,5.021-3.79,5.021-3.79L58.103,401.688z"/>
						<g>
							<g>
								<path style="fill:none;stroke:#2C3C52;stroke-width:1.5995;stroke-linecap:round;stroke-miterlimit:10;" d="M94.166,405.764
									c0,0,4.773,2.807,8.396-1.47"/>
							</g>
						</g>
					</g>
				</g>
			</g>
			<path style="clip-path:url(#SVGID_00000093172832074907891220000002552419644605564580_);fill:#2C3C52;" d="M68.854,359.508
				c0,0-7.837-3.617-6.933-7.536c0.904-3.919,6.374,3.922,6.374,3.922s-3.661-8.745,0.56-10.553
				c4.22-1.809,5.727,14.168,5.727,14.168"/>
			<path style="clip-path:url(#SVGID_00000093172832074907891220000002552419644605564580_);fill:#2C3C52;" d="M74.123,368.259
				c0,0,11.031,15.25,21.786,4.204c0,0,9.593,10.174,18.895,0.872c0,0,7.911,13.925,21.106,12.34l3.139-2.075
				c0,0,6.859-11.428-7.967-19.568c0,0,2.693-18.246-30.813-15.988c0,0-11.823-15.063-31.976,7.849c0,0-25.356,8.95-17.151,25.872
				c0,0-12.625,13.751-1.196,16.75l10.49,0.17c0,0,7.275-4.129,5.822-14.885C66.259,383.8,72.104,384.403,74.123,368.259z"/>
		</g>
		<g>
			<path style="fill:#E8CC31;" d="M145.128,369.267l-4.071,1.153c-1.022,0.289-1.802,1.238-2.001,2.432l-0.734,4.403
				c-0.142,0.851-1.354,0.881-1.538,0.038l-0.875-4.017c-0.304-1.393-1.277-2.463-2.495-2.744l-3.822-0.881
				c-0.844-0.194-0.873-1.385-0.04-1.621l3.776-1.069c1.202-0.341,2.12-1.456,2.354-2.861l0.676-4.058
				c0.142-0.851,1.354-0.881,1.538-0.038l0.953,4.373c0.256,1.176,1.078,2.079,2.107,2.316l4.133,0.952
				C145.931,367.841,145.96,369.031,145.128,369.267z"/>
			<path style="fill:#E8CC31;" d="M45.878,383.828l-1.471,0.415c-0.67,0.189-1.191,0.845-1.335,1.681l-0.23,1.331
				c-0.167,0.967-1.451,0.974-1.628,0.009l-0.2-1.085c-0.181-0.983-0.802-1.749-1.594-1.963l-1.28-0.346
				c-0.867-0.235-0.874-1.56-0.01-1.804l1.277-0.361c0.788-0.223,1.401-0.994,1.571-1.978l0.188-1.089
				c0.167-0.967,1.451-0.974,1.629-0.009l0.246,1.336c0.153,0.83,0.677,1.476,1.346,1.657l1.482,0.401
				C46.735,382.259,46.742,383.584,45.878,383.828z"/>
			<path style="fill:#E8CC31;" d="M128.143,355.443l-1.824,0.515c-0.831,0.235-1.476,1.047-1.655,2.085l-0.285,1.65
				c-0.207,1.199-1.799,1.208-2.019,0.011l-0.247-1.345c-0.224-1.219-0.995-2.168-1.976-2.434l-1.586-0.429
				c-1.075-0.291-1.084-1.934-0.012-2.236l1.583-0.447c0.977-0.276,1.737-1.232,1.948-2.452l0.233-1.35
				c0.207-1.199,1.799-1.208,2.019-0.011l0.304,1.656c0.189,1.029,0.84,1.83,1.668,2.055l1.837,0.497
				C129.206,353.498,129.215,355.14,128.143,355.443z"/>
		</g>
	</g>
	<g>
		
			<ellipse transform="matrix(0.7071 -0.7071 0.7071 0.7071 -160.8085 401.9883)" style="fill:#EA6868;" cx="404.839" cy="395.107" rx="68.83" ry="68.83"/>
		
			<ellipse transform="matrix(0.7071 -0.7071 0.7071 0.7071 -160.8085 401.9883)" style="fill:#7CCABF;" cx="404.839" cy="395.107" rx="61.86" ry="61.86"/>
		<g>
			<defs>
				
					<ellipse id="SVGID_00000041979302911474520860000013858691218299200179_" transform="matrix(0.7071 -0.7071 0.7071 0.7071 -160.8085 401.9883)" cx="404.839" cy="395.107" rx="61.86" ry="61.86"/>
			</defs>
			<clipPath id="SVGID_00000173880421983272009530000013067979457569518775_">
				<use xlink:href="#SVGID_00000041979302911474520860000013858691218299200179_"  style="overflow:visible;"/>
			</clipPath>
			
				<ellipse transform="matrix(0.957 -0.29 0.29 0.957 -104.7542 124.8636)" style="clip-path:url(#SVGID_00000173880421983272009530000013067979457569518775_);fill:#E29ACE;" cx="368.883" cy="415.847" rx="14.76" ry="14.76"/>
			
				<ellipse transform="matrix(0.8069 -0.5907 0.5907 0.8069 -169.2724 299.9225)" style="clip-path:url(#SVGID_00000173880421983272009530000013067979457569518775_);fill:#EA6868;" cx="374.111" cy="408.872" rx="7.609" ry="14.856"/>
			
				<ellipse transform="matrix(0.8743 -0.4853 0.4853 0.8743 -147.5204 266.5167)" style="clip-path:url(#SVGID_00000173880421983272009530000013067979457569518775_);fill:#E29ACE;" cx="440.912" cy="418.136" rx="14.76" ry="14.76"/>
			<path style="clip-path:url(#SVGID_00000173880421983272009530000013067979457569518775_);fill:#EA6868;" d="M445.302,403.925
				c2.629,3.278-0.427,10.098-6.828,15.232c-6.4,5.134-13.721,6.638-16.35,3.36c-2.629-3.278,0.427-10.098,6.828-15.232
				C435.352,402.151,442.672,400.647,445.302,403.925z"/>
			<g style="clip-path:url(#SVGID_00000173880421983272009530000013067979457569518775_);">
				<ellipse style="fill:#F6E1DA;" cx="407.828" cy="468.416" rx="50.129" ry="38.434"/>
				<path style="fill:#F1CEAD;" d="M420.873,420.438l-3.322,12.197c0,0-10.224,5.052-20.891,0l-3.1-7.934L420.873,420.438z"/>
				<path style="fill:#F6E1DA;" d="M395.055,428.525l-1.495-3.825l26.768-2.811l-2.359,9.238
					C410.036,432.164,402.332,431.085,395.055,428.525z"/>
				<g>
					<g>
						<g>
							<path style="fill:#E29ACE;" d="M449.532,395.408c-4.968,21.544-29.665,34.631-52.647,29.368
								c-22.982-5.264-40.561-24.105-35.592-45.649c4.969-21.544,29.738-33.883,52.72-28.619
								C436.995,355.771,454.501,373.864,449.532,395.408z"/>
							<path style="fill:#EDCFAF;" d="M445.407,398.258c-4.703,20.391-26.148,32.883-47.901,27.901
								c-21.752-4.982-36.392-22.001-31.69-42.392c4.703-20.392,26.148-32.883,47.901-27.902
								C435.469,360.847,450.11,377.866,445.407,398.258z"/>
							<path style="fill:#E29ACE;" d="M359.465,382.066c-0.149,1.732,1.224,3.237,2.957,3.105c0.522-0.04,2.165,1.276,2.89,1.15
								c22.477-3.899,42.369-25.685,42.369-25.685c0.257,1.069,15.529,21.431,39.454,27.52c2.785,0.709,3.409,2.349,4.006-0.252
								c2.197-9.565,2.68-22.247-13.788-34.637c-5.204-3.915-19.361-9.838-29.206-5.831
								C407.719,347.609,363.422,335.944,359.465,382.066z"/>
							<path style="fill:#E29ACE;" d="M407.098,350.573c0,0-7.213-8.303-4.316-9.116c2.898-0.813,4.681,7.536,4.681,7.536
								s1.863-9.544,4.256-9.55C414.111,339.437,411.553,349.75,407.098,350.573z"/>
							<path style="fill:#E29ACE;" d="M386.693,373.863c0,0-11.029,4.432-9.71,8.09c1.319,3.659,15.788-2.003,17.669-4.749
								C396.532,374.459,392.46,370.489,386.693,373.863z"/>
							<path style="fill:#E29ACE;" d="M425.124,376.408c0,0,10.761,5.044,9.237,8.623c-1.524,3.579-15.65-2.886-17.372-5.733
								C415.267,376.451,419.558,372.715,425.124,376.408z"/>
							<g>
								<path style="fill:#FFFFFF;" d="M431.7,395.611c-0.877,5.022-5.674,8.383-10.713,7.509
									c-5.039-0.874-8.413-5.654-7.535-10.676s5.674-8.384,10.713-7.509C429.204,385.809,432.577,390.589,431.7,395.611z"/>
							</g>
							<path style="fill:#FFFFFF;" d="M399.381,392.894c-0.877,5.022-5.674,8.384-10.713,7.509
								c-5.039-0.875-8.413-5.654-7.535-10.676c0.877-5.022,5.674-8.383,10.713-7.509
								C396.885,383.092,400.259,387.872,399.381,392.894z"/>
							<path style="fill:#2C3C52;" d="M396.239,391.324c-0.041,4.132-4.075,6.96-7.991,5.601c-2.371-0.823-3.997-3.127-3.973-5.629
								c0.041-4.132,4.075-6.96,7.991-5.601C394.638,386.518,396.264,388.822,396.239,391.324z"/>
							<path style="fill:#2C3C52;" d="M427.665,394.029c-0.041,4.132-4.075,6.96-7.991,5.601c-2.371-0.823-3.997-3.127-3.973-5.629
								c0.041-4.132,4.075-6.96,7.991-5.601C426.064,389.224,427.69,391.527,427.665,394.029z"/>
							<path style="fill:#DAA186;" d="M394.719,403.19c-0.492,2.132-4.254,3.693-8.241,2.78c-3.987-0.913-5.996-3.494-5.504-5.626
								c0.492-2.132,3.43-3.58,7.417-2.667C392.377,398.589,395.21,401.058,394.719,403.19z"/>
							<path style="fill:#DAA186;" d="M416.63,404.559c0.089,2.186,3.498,4.411,7.585,4.247c4.087-0.165,6.54-2.332,6.452-4.518
								s-2.709-4.149-6.796-3.985C419.783,400.467,416.542,402.373,416.63,404.559z"/>
							<path style="fill:#EDCFAF;" d="M367.22,385.791c0,0-4.525-5.616-10.398-2.381c-5.873,3.235-5.822,14.432,0.829,16.231
								c6.652,1.8,10.564-4.915,10.564-4.915L367.22,385.791z"/>
							<path style="fill:#DAA186;" d="M363.265,387.946c0,0-3.055-3.132-6.288-1.351c-3.233,1.781-3.205,7.944,0.457,8.935
								c3.662,0.991,5.815-2.706,5.815-2.706L363.265,387.946z"/>
							<path style="fill:#EDCFAF;" d="M443.416,390.323c0,0,5.185-5.018,10.613-1.086c5.428,3.932,3.993,15.037-2.831,16.006
								c-6.824,0.969-9.875-6.176-9.875-6.176L443.416,390.323z"/>
							<path style="fill:#DAA186;" d="M446.043,393.152c0,0,2.845-2.753,5.823-0.596c2.978,2.157,2.191,8.251-1.553,8.783
								c-3.744,0.532-5.418-3.388-5.418-3.388L446.043,393.152z"/>
							<g>
								<path style="fill:#2C3C52;" d="M412.496,396.812c-5.807-1.321-13.18,0.596-13.18,0.596s0.091,1.988,1.016,3.954
									c3.889-1.66,8.315-2.092,12.104-0.876C412.844,398.576,412.496,396.812,412.496,396.812z"/>
								<path style="fill:#EA6868;" d="M400.332,401.361c0.941,1.999,2.745,3.976,6.197,3.82c4.012-0.182,5.445-2.532,5.907-4.695
									C408.648,399.27,404.221,399.702,400.332,401.361z"/>
							</g>
						</g>
					</g>
				</g>
			</g>
		</g>
		<g>
			<path style="fill:#FFFFFF;" d="M373.388,431.635l-2.975,0.842c-0.747,0.211-1.317,0.904-1.462,1.777l-0.536,3.217
				c-0.104,0.622-0.989,0.644-1.124,0.028l-0.64-2.935c-0.222-1.018-0.933-1.799-1.823-2.005l-2.792-0.643
				c-0.616-0.142-0.638-1.012-0.029-1.184l2.759-0.781c0.878-0.249,1.549-1.064,1.72-2.09l0.494-2.965
				c0.103-0.622,0.989-0.644,1.124-0.028l0.696,3.195c0.187,0.859,0.788,1.519,1.539,1.693l3.02,0.696
				C373.975,430.593,373.997,431.463,373.388,431.635z"/>
			<path style="fill:#FFFFFF;" d="M453.707,365.514l-2.975,0.842c-0.747,0.211-1.317,0.904-1.462,1.777l-0.536,3.217
				c-0.104,0.622-0.989,0.644-1.124,0.028l-0.64-2.935c-0.222-1.018-0.933-1.799-1.823-2.005l-2.792-0.643
				c-0.616-0.142-0.638-1.012-0.029-1.184l2.759-0.781c0.878-0.249,1.549-1.064,1.72-2.09l0.494-2.965
				c0.104-0.622,0.99-0.644,1.124-0.028l0.696,3.195c0.187,0.859,0.787,1.519,1.539,1.693l3.02,0.696
				C454.294,364.472,454.316,365.342,453.707,365.514z"/>
			<path style="fill:#FFFFFF;" d="M366.196,365.856l-1.325,0.374c-0.604,0.171-1.073,0.761-1.203,1.515l-0.207,1.199
				c-0.151,0.871-1.307,0.878-1.467,0.008l-0.18-0.978c-0.163-0.886-0.723-1.575-1.436-1.769l-1.153-0.312
				c-0.781-0.211-0.788-1.405-0.009-1.625l1.151-0.325c0.71-0.201,1.262-0.895,1.415-1.782l0.169-0.981
				c0.151-0.872,1.307-0.878,1.467-0.008l0.221,1.204c0.138,0.748,0.61,1.33,1.212,1.493l1.335,0.362
				C366.969,364.443,366.975,365.636,366.196,365.856z"/>
			<path style="fill:#FFFFFF;" d="M462.544,385.501l-1.471,0.415c-0.67,0.189-1.191,0.845-1.335,1.681l-0.23,1.331
				c-0.167,0.967-1.451,0.974-1.629,0.009l-0.2-1.085c-0.181-0.983-0.802-1.749-1.594-1.963l-1.28-0.346
				c-0.867-0.235-0.874-1.56-0.01-1.804l1.277-0.361c0.788-0.223,1.401-0.994,1.571-1.978l0.188-1.089
				c0.167-0.967,1.451-0.974,1.629-0.009l0.246,1.336c0.153,0.83,0.677,1.476,1.346,1.657l1.482,0.401
				C463.401,383.932,463.408,385.257,462.544,385.501z"/>
			<path style="fill:#FFFFFF;" d="M360.764,417.993l-1.824,0.515c-0.831,0.235-1.476,1.047-1.655,2.084l-0.285,1.65
				c-0.207,1.199-1.799,1.208-2.019,0.011l-0.247-1.345c-0.224-1.219-0.995-2.168-1.976-2.434l-1.586-0.429
				c-1.075-0.291-1.084-1.934-0.012-2.236l1.583-0.447c0.977-0.276,1.737-1.232,1.948-2.452l0.233-1.35
				c0.207-1.199,1.799-1.208,2.019-0.011l0.305,1.656c0.189,1.029,0.84,1.83,1.668,2.055l1.837,0.497
				C361.827,416.048,361.835,417.691,360.764,417.993z"/>
		</g>
	</g>
	<g>
		<g>
			<circle style="fill:#C2B3D7;" cx="250.405" cy="250" r="68.83"/>
			<circle style="fill:#EA6868;" cx="250.405" cy="250" r="61.86"/>
		</g>
		<g>
			<defs>
				
					<ellipse id="SVGID_00000070080085528689417000000015466746479252763024_" transform="matrix(0.2238 -0.9746 0.9746 0.2238 -47.7835 436.8945)" cx="250.405" cy="248.447" rx="61.86" ry="61.86"/>
			</defs>
			<clipPath id="SVGID_00000139990464535986737970000010856715032638753966_">
				<use xlink:href="#SVGID_00000070080085528689417000000015466746479252763024_"  style="overflow:visible;"/>
			</clipPath>
			<g style="clip-path:url(#SVGID_00000139990464535986737970000010856715032638753966_);">
				<ellipse style="fill:#EFC825;" cx="251.607" cy="315.134" rx="48.305" ry="29.333"/>
				<path style="fill:#F6E1DA;" d="M293.838,249.842c-1.88,20.61-22.881,35.447-46.908,33.139
					c-24.026-2.308-42.307-17.299-40.427-37.908c1.88-20.61,22.881-35.447,46.908-33.139
					C277.437,214.242,295.718,229.232,293.838,249.842z"/>
				<path style="fill:#F1CEAD;" d="M236.827,279.709l3.18,11.983c0,0,9.788,4.963,20,0l2.967-7.795L236.827,279.709z"/>
				<path style="fill:#DAA186;" d="M261.544,287.655l1.431-3.758l-25.626-2.762l2.258,9.076
					C247.201,291.23,254.576,290.169,261.544,287.655z"/>
				<path style="fill:#F1CDB0;" d="M291.223,250.492c-1.965,21.535-21.642,37.256-43.952,35.113
					c-22.309-2.143-39.144-17.589-37.18-39.124c1.964-21.535,21.642-37.256,43.952-35.113
					C276.352,213.511,293.187,228.957,291.223,250.492z"/>
				<path style="fill:#F6E1DA;" d="M219.966,212.047c0,0-4.437,27.925-9.333,35.311c-0.39,0.589-2.295-1.015-2.785-0.947
					c-1.624,0.226-3.029-1.152-2.957-2.833c1.701-39.606,34.12-39.898,39.093-39.71c0.435,0.017,0.857-0.085,1.249-0.277
					c9.049-4.432,33.289-4.21,40.399,5.54c9.654,13.239,8.342,21.063,7.217,33.321c0,0-20.979-5.973-33.365-31.095"/>
				<path style="fill:#F6E1DA;" d="M210.633,247.358c0,0,18.378-8.285,27.41-24.681c0,0,18.063,9.624,39.947,4.634
					c21.884-4.99-4.069-42.896-32.652-32.794c-19.97,7.058-44.463,9.268-40.295,50.617"/>
				<path style="fill:#F6E1DA;" d="M230.304,234.079c0,0-10.385,6.043-8.585,9.612c1.8,3.569,15.445-4.203,16.95-7.272
					C240.174,233.35,235.593,229.836,230.304,234.079z"/>
				<path style="fill:#F6E1DA;" d="M266.527,230.518c0,0,11.38,3.703,10.34,7.578c-1.04,3.875-15.958-0.827-18.051-3.509
					C256.723,231.905,260.496,227.493,266.527,230.518z"/>
				<path style="fill:#FFFFFF;" d="M244.707,251.263c-0.204,5.265-4.53,9.363-9.661,9.153c-5.131-0.21-9.124-4.648-8.92-9.913
					c0.204-5.265,4.53-9.363,9.661-9.153C240.918,241.56,244.912,245.998,244.707,251.263z"/>
				<path style="fill:#2C3C52;" d="M240.795,248.004c2.546,5.811-3.162,11.218-8.603,8.15c-0.947-0.534-1.709-1.381-2.152-2.393
					c-2.546-5.81,3.162-11.217,8.603-8.15C239.589,246.145,240.351,246.993,240.795,248.004z"/>
				<path style="fill:#DAA186;" d="M241.438,262.449c-0.205,2.252-3.742,4.363-7.831,3.97c-4.089-0.393-6.432-2.764-6.227-5.016
					c0.205-2.252,2.937-4.136,7.026-3.743C238.495,258.053,241.644,260.197,241.438,262.449z"/>
				<path style="fill:#FFFFFF;" d="M257.068,250.867c1.171,5.13,6.174,8.315,11.173,7.113c5-1.202,8.103-6.335,6.932-11.465
					c-1.171-5.13-6.174-8.315-11.173-7.113C259,240.603,255.896,245.736,257.068,250.867z"/>
				<path style="fill:#2C3C52;" d="M260.406,246.604c-1.738,6.117,4.645,10.661,9.62,6.848c0.866-0.663,1.506-1.611,1.809-2.675
					c1.737-6.116-4.645-10.66-9.62-6.849C261.349,244.592,260.708,245.539,260.406,246.604z"/>
				<path style="fill:#DAA186;" d="M261.718,261.001c0.507,2.201,4.295,3.789,8.291,2.819c3.996-0.97,5.997-3.651,5.49-5.852
					c-0.507-2.201-3.467-3.679-7.463-2.709C264.039,256.229,261.21,258.8,261.718,261.001z"/>
				<path style="fill:#F1CDB0;" d="M211.757,248.364c0,0-5.25-5.139-10.664-1.024c-5.414,4.115-3.872,15.581,2.987,16.519
					c6.859,0.938,9.857-6.475,9.857-6.475L211.757,248.364z"/>
				<path style="fill:#DAA186;" d="M208.109,251.111c0,0-3.457-2.794-6.437-0.529c-2.98,2.265-2.132,8.577,1.644,9.093
					c3.776,0.516,5.426-3.564,5.426-3.564L208.109,251.111z"/>
				<path style="fill:#F1CDB0;" d="M288.185,242.633c0,0,4.491-5.848,10.417-2.558c5.925,3.29,5.975,14.864-0.686,16.786
					c-6.661,1.922-10.649-4.984-10.649-4.984L288.185,242.633z"/>
				<path style="fill:#DAA186;" d="M291.176,245.174c0,0,2.465-3.209,5.716-1.403c3.251,1.805,3.279,8.156-0.377,9.211
					c-3.655,1.054-5.843-2.734-5.843-2.734L291.176,245.174z"/>
				<g>
					<g>
						<path style="fill:#FFFFFF;" d="M249.361,262.804c-2.837-0.468-4.827-1.732-4.984-1.834c-1.144-0.744-1.521-2.502-0.842-3.926
							c0.678-1.422,2.151-1.973,3.291-1.237c0.238,0.15,5.191,3.201,9.64-0.36c1.134-0.908,2.616-0.572,3.307,0.754
							c0.692,1.325,0.332,3.136-0.804,4.045C255.566,262.971,252.075,263.251,249.361,262.804z"/>
					</g>
					<path style="opacity:0.43;fill:#8BBCFC;" d="M259.999,256.79c-0.057-0.203-0.128-0.401-0.226-0.589
						c-0.02-0.038-0.047-0.068-0.068-0.104c-6.803,5.965-14.654,2.274-16.329,1.369c-0.085,0.262-0.139,0.528-0.161,0.795
						c0.861,0.451,2.787,1.34,5.253,1.747C251.776,260.553,256.047,260.216,259.999,256.79z"/>
				</g>
				<g>
					<path style="fill:#2C3C52;" d="M295.702,281.829l-4.071,1.153c-1.022,0.289-1.802,1.238-2.001,2.432l-0.734,4.403
						c-0.142,0.851-1.354,0.881-1.538,0.038l-0.876-4.017c-0.303-1.393-1.277-2.463-2.495-2.744l-3.822-0.881
						c-0.844-0.194-0.873-1.385-0.04-1.621l3.776-1.069c1.202-0.34,2.12-1.456,2.354-2.861l0.676-4.058
						c0.142-0.851,1.354-0.881,1.538-0.038l0.953,4.373c0.256,1.176,1.078,2.079,2.107,2.317l4.133,0.952
						C296.506,280.402,296.535,281.593,295.702,281.829z"/>
					<path style="fill:#2C3C52;" d="M216.488,279.271l-3.017,0.854c-0.757,0.215-1.335,0.917-1.483,1.802l-0.544,3.263
						c-0.105,0.631-1.004,0.653-1.14,0.028l-0.649-2.977c-0.225-1.032-0.946-1.825-1.849-2.033l-2.832-0.653
						c-0.625-0.144-0.647-1.026-0.03-1.201l2.798-0.792c0.891-0.252,1.571-1.079,1.745-2.12l0.501-3.007
						c0.105-0.631,1.004-0.653,1.14-0.028l0.706,3.24c0.19,0.872,0.799,1.541,1.561,1.717l3.063,0.706
						C217.083,278.214,217.105,279.096,216.488,279.271z"/>
					<path style="fill:#2C3C52;" d="M304.461,267.927l-1.471,0.415c-0.67,0.189-1.191,0.845-1.335,1.681l-0.23,1.331
						c-0.167,0.967-1.451,0.974-1.629,0.009l-0.199-1.085c-0.181-0.983-0.802-1.749-1.594-1.963l-1.28-0.346
						c-0.867-0.235-0.874-1.56-0.01-1.804l1.277-0.361c0.788-0.223,1.401-0.994,1.571-1.978l0.188-1.089
						c0.167-0.967,1.451-0.974,1.629-0.009l0.246,1.336c0.153,0.83,0.677,1.476,1.346,1.657l1.482,0.401
						C305.318,266.358,305.325,267.683,304.461,267.927z"/>
					<path style="fill:#2C3C52;" d="M200.001,235.989l-1.471,0.415c-0.67,0.189-1.191,0.845-1.335,1.681l-0.23,1.331
						c-0.167,0.967-1.451,0.974-1.628,0.009l-0.2-1.085c-0.181-0.983-0.802-1.748-1.594-1.963l-1.28-0.346
						c-0.867-0.235-0.874-1.56-0.01-1.804l1.277-0.361c0.788-0.223,1.401-0.994,1.571-1.978l0.188-1.089
						c0.167-0.967,1.451-0.974,1.628-0.009l0.246,1.336c0.153,0.83,0.677,1.476,1.346,1.657l1.482,0.401
						C200.859,234.42,200.866,235.745,200.001,235.989z"/>
					<path style="fill:#2C3C52;" d="M305.441,232.748l-1.824,0.515c-0.831,0.235-1.476,1.047-1.655,2.084l-0.285,1.65
						c-0.207,1.199-1.799,1.208-2.019,0.011l-0.247-1.345c-0.224-1.219-0.995-2.168-1.976-2.434l-1.586-0.429
						c-1.075-0.291-1.084-1.933-0.012-2.236l1.583-0.447c0.977-0.276,1.737-1.232,1.948-2.452l0.233-1.35
						c0.207-1.199,1.799-1.208,2.019-0.011l0.305,1.656c0.189,1.029,0.84,1.83,1.668,2.055l1.837,0.497
						C306.504,230.803,306.513,232.445,305.441,232.748z"/>
				</g>
			</g>
		</g>
	</g>
	<g>
		<g>
			
				<ellipse transform="matrix(0.7071 -0.7071 0.7071 0.7071 -207.4203 293.3588)" style="fill:#EFC825;" cx="250.405" cy="397.058" rx="68.83" ry="68.83"/>
			
				<ellipse transform="matrix(0.2238 -0.9746 0.9746 0.2238 -192.624 552.2439)" style="fill:#294092;" cx="250.405" cy="397.058" rx="61.86" ry="61.86"/>
		</g>
		<g>
			<defs>
				
					<ellipse id="SVGID_00000025423458588445582030000007414404142723815352_" transform="matrix(0.1667 -0.986 0.986 0.1667 -183.1757 577.3736)" cx="250" cy="397.058" rx="61.86" ry="61.86"/>
			</defs>
			<clipPath id="SVGID_00000152952947721748728160000002893200894382315935_">
				<use xlink:href="#SVGID_00000025423458588445582030000007414404142723815352_"  style="overflow:visible;"/>
			</clipPath>
			<g style="clip-path:url(#SVGID_00000152952947721748728160000002893200894382315935_);">
				<g>
					<ellipse style="fill:#C2B3D7;" cx="251.661" cy="472.297" rx="49.512" ry="37.998"/>
					<path style="fill:#FCE1D0;" d="M266.883,423.476l-3.768,13.835c0.643,0.019-10.044,5.775-23.695,0l-3.516-9L266.883,423.476z"
						/>
					<path style="fill:#EFBBAF;" d="M237.599,432.65l-1.695-4.339l30.361-3.189l-2.676,10.479
						C254.592,436.778,245.853,435.553,237.599,432.65z"/>
					<g>
						<path style="fill:#7CCABF;" d="M296.357,393.743c-1.763,22.592-23.713,39.305-49.026,37.329
							c-25.314-1.976-44.712-17.958-42.949-40.55c1.763-22.592,23.713-39.305,49.027-37.329
							C278.722,355.169,298.12,371.152,296.357,393.743z"/>
						<path style="fill:#FCE1D0;" d="M291.487,395.586c-1.668,21.372-21.437,37.259-44.157,35.486
							c-22.719-1.773-40.075-16.815-38.407-38.187c1.668-21.372,21.438-37.259,44.157-35.486
							C275.799,359.173,293.155,374.215,291.487,395.586z"/>
						<path style="fill:#7CCABF;" d="M237.539,350.372c0,0-43.426-0.329-34.214,43.097l7.323,1.258c0,0,7.352-3.886,13.732-11.95
							c9.542-12.059,7.248-20.89,7.248-20.89s17.57,24.313,34.44,14.295c8.23,11.901,14.143,15.044,20.489,14.985
							c2.887-0.027,8.616-2.339,9.243-6.927C296.427,379.651,291.821,333.594,237.539,350.372z"/>
						<path style="fill:#7CCABF;" d="M228.865,357.774c0,0-5.264-10.198-2.961-11.514c2.303-1.316,6.909,6.58,6.909,6.58
							s-0.329-8.225,2.961-8.554c3.29-0.329,3.619,8.554,3.619,8.554"/>
						<path style="fill:#7CCABF;" d="M231.623,382.034c0,0-10.468,6.152-8.583,9.66c1.885,3.509,15.641-4.407,17.125-7.472
							C241.649,381.157,236.937,377.747,231.623,382.034z"/>
						<path style="fill:#7CCABF;" d="M267.314,380.807c0,0,11.078,4.97,9.588,8.664c-1.49,3.694-16.029-2.67-17.84-5.555
							C257.252,381.031,261.563,377.126,267.314,380.807z"/>
						<g>
							<path style="fill:none;stroke:#2E3E52;stroke-width:1.2595;stroke-linecap:round;stroke-miterlimit:10;" d="M261.689,401.634
								c-0.849-4.232,1.226-8.216,4.634-8.9c3.408-0.684,6.86,2.192,7.708,6.424"/>
						</g>
						<path style="fill:#FFFFFF;" d="M244.23,399.166c-0.127,5.221-4.463,9.35-9.684,9.222c-5.221-0.127-9.35-4.463-9.222-9.684
							c0.127-5.221,4.463-9.35,9.684-9.222C240.229,389.61,244.358,393.946,244.23,399.166z"/>
						<path style="fill:#2C3C52;" d="M240.202,395.998c2.678,5.718-3.043,11.167-8.624,8.211c-0.971-0.514-1.759-1.342-2.225-2.337
							c-2.678-5.718,3.043-11.166,8.623-8.211C238.947,394.176,239.736,395.003,240.202,395.998z"/>
						<path style="fill:#EFBBAF;" d="M239.514,411.155c-0.174,2.235-3.738,4.383-7.902,4.057c-4.164-0.325-6.583-2.638-6.409-4.873
							c0.174-2.235,2.923-4.145,7.087-3.82C236.454,406.845,239.688,408.92,239.514,411.155z"/>
						<path style="fill:#EFBBAF;" d="M263.412,408.39c0.42,2.202,4.199,3.943,8.301,3.161c4.103-0.782,6.252-3.348,5.832-5.55
							c-0.42-2.202-3.362-3.797-7.465-3.015C265.978,403.769,262.992,406.188,263.412,408.39z"/>
						<path style="fill:#FCE1D0;" d="M210.647,394.726c0,0-5.418-5.01-10.86-0.847c-5.442,4.162-3.699,15.501,3.29,16.323
							c6.989,0.822,9.925-6.571,9.925-6.571L210.647,394.726z"/>
						<path style="fill:#EFBBAF;" d="M206.978,397.506c0,0-3.558-2.714-6.554-0.423c-2.996,2.291-2.036,8.533,1.811,8.985
							c3.847,0.452,5.463-3.617,5.463-3.617L206.978,397.506z"/>
						<path style="fill:#FCE1D0;" d="M288.278,387.846c0,0,4.478-5.865,10.553-2.698c6.076,3.167,6.304,14.636-0.441,16.646
							c-6.745,2.009-10.905-4.771-10.905-4.771L288.278,387.846z"/>
						<path style="fill:#EFBBAF;" d="M291.358,390.317c0,0,2.457-3.218,5.791-1.48c3.334,1.738,3.459,8.031-0.242,9.134
							c-3.701,1.102-5.984-2.618-5.984-2.618L291.358,390.317z"/>
						<g>
							<g>
								<path style="fill:#FFFFFF;" d="M249.568,410.706c-2.611-0.424-4.44-1.562-4.585-1.654c-1.052-0.669-1.396-2.247-0.769-3.523
									c0.626-1.275,1.983-1.767,3.032-1.104c0.219,0.135,4.773,2.881,8.875-0.306c1.046-0.813,2.409-0.509,3.044,0.682
									c0.634,1.19,0.3,2.814-0.747,3.627C255.28,410.866,252.066,411.112,249.568,410.706z"/>
							</g>
							<path style="opacity:0.43;fill:#8BBCFC;" d="M259.372,405.329c-0.052-0.182-0.117-0.36-0.207-0.529
								c-0.018-0.034-0.043-0.061-0.063-0.094c-6.272,5.339-13.494,2.014-15.034,1.199c-0.078,0.235-0.128,0.473-0.149,0.713
								c0.792,0.406,2.563,1.207,4.832,1.576C251.795,408.69,255.728,408.396,259.372,405.329z"/>
						</g>
						<g>
							<path style="fill:#9CB7E0;" d="M208.869,403.886c2.369,10.516,12.845,17.128,23.397,14.769
								c9.976-2.231,16.444-11.681,15.12-21.592c0.19-0.049,0.376-0.105,0.569-0.148c1.972-0.441,3.941-0.515,5.836-0.269
								c0.044,1.183,0.191,2.379,0.461,3.576c2.369,10.516,12.845,17.128,23.397,14.769c10.552-2.36,17.186-12.798,14.816-23.314
								c-2.369-10.516-12.844-17.128-23.397-14.769c-8.387,1.875-14.293,8.855-15.176,16.921c-2.133-0.248-4.342-0.152-6.555,0.343
								c-0.176,0.039-0.346,0.089-0.52,0.133c-2.804-9.909-12.931-16.013-23.132-13.732
								C213.134,382.932,206.5,393.37,208.869,403.886z M257.005,399.606c-2.028-9.001,3.65-17.936,12.682-19.955
								c9.032-2.02,17.998,3.64,20.026,12.641c2.028,9.001-3.65,17.936-12.682,19.955
								C267.999,414.267,259.033,408.608,257.005,399.606z M211.622,403.271c-2.028-9.001,3.65-17.935,12.682-19.955
								c9.032-2.02,17.998,3.64,20.026,12.641c2.028,9.001-3.65,17.936-12.682,19.955
								C222.616,417.932,213.65,412.272,211.622,403.271z"/>
							<path style="fill:#8380B9;" d="M209.637,402.679c2.369,10.516,12.844,17.128,23.397,14.769
								c9.976-2.231,16.444-11.681,15.12-21.592c0.19-0.049,0.376-0.105,0.569-0.148c1.972-0.441,3.941-0.515,5.835-0.269
								c0.044,1.184,0.191,2.379,0.461,3.576c2.37,10.516,12.845,17.128,23.397,14.769c10.552-2.36,17.186-12.798,14.816-23.314
								c-2.369-10.516-12.844-17.128-23.397-14.769c-8.387,1.875-14.293,8.855-15.176,16.921c-2.133-0.248-4.342-0.152-6.555,0.343
								c-0.176,0.039-0.346,0.089-0.52,0.133c-2.804-9.909-12.931-16.013-23.132-13.732
								C213.902,381.725,207.268,392.163,209.637,402.679z M257.773,398.399c-2.028-9.001,3.65-17.935,12.682-19.955
								c9.032-2.02,17.998,3.64,20.026,12.641c2.028,9.001-3.65,17.936-12.682,19.955
								C268.767,413.06,259.801,407.401,257.773,398.399z M212.39,402.064c-2.028-9.001,3.65-17.935,12.682-19.955
								c9.032-2.02,17.998,3.64,20.026,12.641c2.028,9.001-3.65,17.936-12.682,19.955
								C223.384,416.725,214.418,411.065,212.39,402.064z"/>
						</g>
					</g>
				</g>
			</g>
			<g style="clip-path:url(#SVGID_00000152952947721748728160000002893200894382315935_);">
				<path style="fill:#2C3C52;" d="M296.777,430.198l-4.071,1.153c-1.022,0.289-1.802,1.238-2.001,2.432l-0.733,4.403
					c-0.142,0.851-1.354,0.881-1.538,0.038l-0.875-4.017c-0.304-1.393-1.277-2.463-2.496-2.744l-3.822-0.881
					c-0.844-0.194-0.873-1.385-0.04-1.621l3.776-1.069c1.202-0.34,2.12-1.456,2.354-2.861l0.676-4.058
					c0.142-0.851,1.354-0.881,1.538-0.038l0.953,4.373c0.256,1.176,1.078,2.079,2.107,2.316l4.133,0.953
					C297.581,428.772,297.61,429.962,296.777,430.198z"/>
				<path style="fill:#2C3C52;" d="M207.492,419.31l-3.017,0.854c-0.757,0.214-1.335,0.917-1.483,1.802l-0.544,3.263
					c-0.105,0.631-1.004,0.653-1.14,0.028l-0.649-2.977c-0.225-1.032-0.946-1.825-1.849-2.033l-2.832-0.653
					c-0.625-0.144-0.647-1.026-0.03-1.201l2.798-0.792c0.891-0.252,1.571-1.079,1.744-2.12l0.501-3.007
					c0.105-0.631,1.004-0.653,1.14-0.028l0.706,3.24c0.19,0.872,0.799,1.541,1.561,1.717l3.063,0.706
					C208.088,418.253,208.11,419.135,207.492,419.31z"/>
				<path style="fill:#2C3C52;" d="M305.535,416.296l-1.471,0.415c-0.67,0.189-1.191,0.845-1.335,1.681l-0.23,1.331
					c-0.167,0.967-1.451,0.974-1.628,0.009l-0.2-1.085c-0.181-0.983-0.802-1.749-1.594-1.963l-1.279-0.346
					c-0.867-0.235-0.874-1.56-0.01-1.804l1.277-0.361c0.788-0.223,1.401-0.994,1.571-1.978l0.188-1.089
					c0.167-0.967,1.451-0.974,1.628-0.009l0.246,1.336c0.153,0.83,0.677,1.476,1.346,1.657l1.482,0.401
					C306.393,414.727,306.4,416.052,305.535,416.296z"/>
				<path style="fill:#2C3C52;" d="M301.017,372.931l-1.471,0.415c-0.67,0.189-1.191,0.845-1.335,1.681l-0.23,1.331
					c-0.167,0.967-1.451,0.974-1.629,0.009l-0.199-1.085c-0.181-0.983-0.802-1.749-1.594-1.963l-1.279-0.346
					c-0.867-0.235-0.874-1.56-0.01-1.804l1.277-0.361c0.788-0.223,1.401-0.994,1.571-1.978l0.188-1.089
					c0.167-0.967,1.451-0.974,1.629-0.009l0.246,1.336c0.153,0.83,0.677,1.476,1.346,1.657l1.482,0.401
					C301.875,371.362,301.882,372.687,301.017,372.931z"/>
				<path style="fill:#2C3C52;" d="M216.593,432.434l-1.824,0.515c-0.831,0.235-1.476,1.047-1.655,2.085l-0.285,1.65
					c-0.207,1.199-1.799,1.208-2.019,0.011l-0.247-1.345c-0.224-1.219-0.995-2.168-1.976-2.434l-1.586-0.429
					c-1.075-0.291-1.084-1.934-0.012-2.236l1.583-0.447c0.977-0.276,1.737-1.232,1.947-2.452l0.233-1.35
					c0.207-1.199,1.799-1.208,2.019-0.011l0.305,1.656c0.189,1.029,0.84,1.83,1.668,2.055l1.837,0.497
					C217.656,430.489,217.665,432.132,216.593,432.434z"/>
			</g>
		</g>
	</g>
	<g>
		<path style="fill:#FFFFFF;" d="M203.612,115.905l-2.975,0.842c-0.747,0.212-1.317,0.904-1.462,1.777l-0.536,3.217
			c-0.104,0.622-0.989,0.644-1.124,0.028l-0.64-2.935c-0.222-1.018-0.933-1.799-1.823-2.005l-2.792-0.644
			c-0.616-0.142-0.638-1.012-0.029-1.184l2.759-0.781c0.878-0.249,1.549-1.064,1.72-2.09l0.494-2.965
			c0.104-0.622,0.99-0.644,1.124-0.028l0.696,3.195c0.187,0.859,0.788,1.519,1.539,1.693l3.02,0.696
			C204.199,114.863,204.221,115.732,203.612,115.905z"/>
		<path style="fill:#FFFFFF;" d="M309.916,104.425l-1.471,0.415c-0.67,0.189-1.191,0.845-1.335,1.681l-0.23,1.331
			c-0.167,0.967-1.451,0.974-1.628,0.009l-0.2-1.085c-0.181-0.983-0.802-1.749-1.594-1.963l-1.28-0.346
			c-0.867-0.235-0.874-1.56-0.01-1.804l1.277-0.361c0.788-0.223,1.401-0.994,1.571-1.978l0.188-1.089
			c0.167-0.967,1.451-0.974,1.629-0.009l0.246,1.336c0.153,0.83,0.677,1.476,1.346,1.657l1.482,0.401
			C310.773,102.856,310.78,104.181,309.916,104.425z"/>
		<path style="fill:#FFFFFF;" d="M203.59,86.383l-1.471,0.415c-0.67,0.189-1.191,0.845-1.335,1.681l-0.23,1.331
			c-0.167,0.967-1.451,0.974-1.629,0.009l-0.199-1.085c-0.181-0.983-0.802-1.749-1.594-1.963l-1.28-0.346
			c-0.867-0.235-0.874-1.56-0.01-1.804l1.277-0.36c0.788-0.223,1.401-0.994,1.571-1.978l0.188-1.089
			c0.167-0.967,1.451-0.974,1.628-0.009l0.246,1.336c0.153,0.83,0.677,1.476,1.346,1.657l1.482,0.401
			C204.447,84.814,204.454,86.139,203.59,86.383z"/>
		<path style="fill:#FFFFFF;" d="M303.319,78.969l-1.824,0.515c-0.831,0.235-1.476,1.047-1.655,2.084l-0.285,1.65
			c-0.207,1.199-1.799,1.208-2.019,0.011l-0.247-1.345c-0.224-1.219-0.995-2.168-1.976-2.434l-1.586-0.43
			c-1.075-0.291-1.084-1.934-0.012-2.236l1.583-0.447c0.977-0.276,1.737-1.232,1.947-2.452l0.233-1.35
			c0.207-1.199,1.799-1.208,2.019-0.011l0.305,1.656c0.189,1.029,0.84,1.83,1.668,2.054l1.837,0.497
			C304.382,77.024,304.391,78.666,303.319,78.969z"/>
	</g>
</g>
</svg>
